<svg width="119" height="17" viewBox="0 0 119 17" fill="none" xmlns="http://www.w3.org/2000/svg">
<path d="M25.964 11.404H22.628L22.076 13H20.312L23.324 4.612H25.28L28.292 13H26.516L25.964 11.404ZM25.508 10.06L24.296 6.556L23.084 10.06H25.508ZM32.3458 4.624C33.2258 4.624 33.9978 4.796 34.6618 5.14C35.3338 5.484 35.8498 5.976 36.2098 6.616C36.5778 7.248 36.7618 7.984 36.7618 8.824C36.7618 9.664 36.5778 10.4 36.2098 11.032C35.8498 11.656 35.3338 12.14 34.6618 12.484C33.9978 12.828 33.2258 13 32.3458 13H29.4178V4.624H32.3458ZM32.2858 11.572C33.1658 11.572 33.8458 11.332 34.3258 10.852C34.8058 10.372 35.0458 9.696 35.0458 8.824C35.0458 7.952 34.8058 7.272 34.3258 6.784C33.8458 6.288 33.1658 6.04 32.2858 6.04H31.0978V11.572H32.2858ZM40.9474 4.624C41.8274 4.624 42.5994 4.796 43.2634 5.14C43.9354 5.484 44.4514 5.976 44.8114 6.616C45.1794 7.248 45.3634 7.984 45.3634 8.824C45.3634 9.664 45.1794 10.4 44.8114 11.032C44.4514 11.656 43.9354 12.14 43.2634 12.484C42.5994 12.828 41.8274 13 40.9474 13H38.0194V4.624H40.9474ZM40.8874 11.572C41.7674 11.572 42.4474 11.332 42.9274 10.852C43.4074 10.372 43.6474 9.696 43.6474 8.824C43.6474 7.952 43.4074 7.272 42.9274 6.784C42.4474 6.288 41.7674 6.04 40.8874 6.04H39.6994V11.572H40.8874ZM51.1603 4.624V13H49.4803V4.624H51.1603ZM56.5042 6.256C57.2962 6.256 57.9362 6.508 58.4242 7.012C58.9122 7.508 59.1562 8.204 59.1562 9.1V13H57.4762V9.328C57.4762 8.8 57.3442 8.396 57.0802 8.116C56.8162 7.828 56.4562 7.684 56.0002 7.684C55.5362 7.684 55.1682 7.828 54.8962 8.116C54.6322 8.396 54.5002 8.8 54.5002 9.328V13H52.8202V6.352H54.5002V7.18C54.7242 6.892 55.0082 6.668 55.3522 6.508C55.7042 6.34 56.0882 6.256 56.5042 6.256ZM63.3578 6.244C63.8538 6.244 64.2898 6.344 64.6658 6.544C65.0418 6.736 65.3378 6.988 65.5538 7.3V6.352H67.2458V13.048C67.2458 13.664 67.1218 14.212 66.8738 14.692C66.6258 15.18 66.2538 15.564 65.7578 15.844C65.2618 16.132 64.6618 16.276 63.9578 16.276C63.0138 16.276 62.2378 16.056 61.6298 15.616C61.0298 15.176 60.6898 14.576 60.6098 13.816H62.2778C62.3658 14.12 62.5538 14.36 62.8418 14.536C63.1378 14.72 63.4938 14.812 63.9098 14.812C64.3978 14.812 64.7938 14.664 65.0978 14.368C65.4018 14.08 65.5538 13.64 65.5538 13.048V12.016C65.3378 12.328 65.0378 12.588 64.6538 12.796C64.2778 13.004 63.8458 13.108 63.3578 13.108C62.7978 13.108 62.2858 12.964 61.8218 12.676C61.3578 12.388 60.9898 11.984 60.7178 11.464C60.4538 10.936 60.3218 10.332 60.3218 9.652C60.3218 8.98 60.4538 8.384 60.7178 7.864C60.9898 7.344 61.3538 6.944 61.8098 6.664C62.2738 6.384 62.7898 6.244 63.3578 6.244ZM65.5538 9.676C65.5538 9.268 65.4738 8.92 65.3138 8.632C65.1538 8.336 64.9378 8.112 64.6658 7.96C64.3938 7.8 64.1018 7.72 63.7898 7.72C63.4778 7.72 63.1898 7.796 62.9258 7.948C62.6618 8.1 62.4458 8.324 62.2778 8.62C62.1178 8.908 62.0378 9.252 62.0378 9.652C62.0378 10.052 62.1178 10.404 62.2778 10.708C62.4458 11.004 62.6618 11.232 62.9258 11.392C63.1978 11.552 63.4858 11.632 63.7898 11.632C64.1018 11.632 64.3938 11.556 64.6658 11.404C64.9378 11.244 65.1538 11.02 65.3138 10.732C65.4738 10.436 65.5538 10.084 65.5538 9.676ZM70.5666 7.384C70.7826 7.032 71.0626 6.756 71.4066 6.556C71.7586 6.356 72.1586 6.256 72.6066 6.256V8.02H72.1626C71.6346 8.02 71.2346 8.144 70.9626 8.392C70.6986 8.64 70.5666 9.072 70.5666 9.688V13H68.8866V6.352H70.5666V7.384ZM79.9182 9.532C79.9182 9.772 79.9022 9.988 79.8702 10.18H75.0102C75.0502 10.66 75.2182 11.036 75.5142 11.308C75.8102 11.58 76.1742 11.716 76.6062 11.716C77.2302 11.716 77.6742 11.448 77.9382 10.912H79.7502C79.5582 11.552 79.1902 12.08 78.6462 12.496C78.1022 12.904 77.4342 13.108 76.6422 13.108C76.0022 13.108 75.4262 12.968 74.9142 12.688C74.4102 12.4 74.0142 11.996 73.7262 11.476C73.4462 10.956 73.3062 10.356 73.3062 9.676C73.3062 8.988 73.4462 8.384 73.7262 7.864C74.0062 7.344 74.3982 6.944 74.9022 6.664C75.4062 6.384 75.9862 6.244 76.6422 6.244C77.2742 6.244 77.8382 6.38 78.3342 6.652C78.8382 6.924 79.2262 7.312 79.4982 7.816C79.7782 8.312 79.9182 8.884 79.9182 9.532ZM78.1782 9.052C78.1702 8.62 78.0142 8.276 77.7102 8.02C77.4062 7.756 77.0342 7.624 76.5942 7.624C76.1782 7.624 75.8262 7.752 75.5382 8.008C75.2582 8.256 75.0862 8.604 75.0222 9.052H78.1782ZM80.7124 9.652C80.7124 8.98 80.8444 8.384 81.1084 7.864C81.3804 7.344 81.7484 6.944 82.2124 6.664C82.6764 6.384 83.1924 6.244 83.7604 6.244C84.1924 6.244 84.6044 6.34 84.9964 6.532C85.3884 6.716 85.7004 6.964 85.9324 7.276V4.12H87.6364V13H85.9324V12.016C85.7244 12.344 85.4324 12.608 85.0564 12.808C84.6804 13.008 84.2444 13.108 83.7484 13.108C83.1884 13.108 82.6764 12.964 82.2124 12.676C81.7484 12.388 81.3804 11.984 81.1084 11.464C80.8444 10.936 80.7124 10.332 80.7124 9.652ZM85.9444 9.676C85.9444 9.268 85.8644 8.92 85.7044 8.632C85.5444 8.336 85.3284 8.112 85.0564 7.96C84.7844 7.8 84.4924 7.72 84.1804 7.72C83.8684 7.72 83.5804 7.796 83.3164 7.948C83.0524 8.1 82.8364 8.324 82.6684 8.62C82.5084 8.908 82.4284 9.252 82.4284 9.652C82.4284 10.052 82.5084 10.404 82.6684 10.708C82.8364 11.004 83.0524 11.232 83.3164 11.392C83.5884 11.552 83.8764 11.632 84.1804 11.632C84.4924 11.632 84.7844 11.556 85.0564 11.404C85.3284 11.244 85.5444 11.02 85.7044 10.732C85.8644 10.436 85.9444 10.084 85.9444 9.676ZM90.1292 5.56C89.8332 5.56 89.5852 5.468 89.3852 5.284C89.1932 5.092 89.0972 4.856 89.0972 4.576C89.0972 4.296 89.1932 4.064 89.3852 3.88C89.5852 3.688 89.8332 3.592 90.1292 3.592C90.4252 3.592 90.6692 3.688 90.8612 3.88C91.0612 4.064 91.1612 4.296 91.1612 4.576C91.1612 4.856 91.0612 5.092 90.8612 5.284C90.6692 5.468 90.4252 5.56 90.1292 5.56ZM90.9572 6.352V13H89.2772V6.352H90.9572ZM98.7971 9.532C98.7971 9.772 98.7811 9.988 98.7491 10.18H93.8891C93.9291 10.66 94.0971 11.036 94.3931 11.308C94.6891 11.58 95.0531 11.716 95.4851 11.716C96.1091 11.716 96.5531 11.448 96.8171 10.912H98.6291C98.4371 11.552 98.0691 12.08 97.5251 12.496C96.9811 12.904 96.3131 13.108 95.5211 13.108C94.8811 13.108 94.3051 12.968 93.7931 12.688C93.2891 12.4 92.8931 11.996 92.6051 11.476C92.3251 10.956 92.1851 10.356 92.1851 9.676C92.1851 8.988 92.3251 8.384 92.6051 7.864C92.8851 7.344 93.2771 6.944 93.7811 6.664C94.2851 6.384 94.8651 6.244 95.5211 6.244C96.1531 6.244 96.7171 6.38 97.2131 6.652C97.7171 6.924 98.1051 7.312 98.3771 7.816C98.6571 8.312 98.7971 8.884 98.7971 9.532ZM97.0571 9.052C97.0491 8.62 96.8931 8.276 96.5891 8.02C96.2851 7.756 95.9131 7.624 95.4731 7.624C95.0571 7.624 94.7051 7.752 94.4171 8.008C94.1371 8.256 93.9651 8.604 93.9011 9.052H97.0571ZM103.707 6.256C104.499 6.256 105.139 6.508 105.627 7.012C106.115 7.508 106.359 8.204 106.359 9.1V13H104.679V9.328C104.679 8.8 104.547 8.396 104.283 8.116C104.019 7.828 103.659 7.684 103.203 7.684C102.739 7.684 102.371 7.828 102.099 8.116C101.835 8.396 101.703 8.8 101.703 9.328V13H100.023V6.352H101.703V7.18C101.927 6.892 102.211 6.668 102.555 6.508C102.907 6.34 103.291 6.256 103.707 6.256ZM109.913 7.732V10.948C109.913 11.172 109.965 11.336 110.069 11.44C110.181 11.536 110.365 11.584 110.621 11.584H111.401V13H110.345C108.929 13 108.221 12.312 108.221 10.936V7.732H107.429V6.352H108.221V4.708H109.913V6.352H111.401V7.732H109.913ZM115.153 13.108C114.609 13.108 114.121 13.012 113.689 12.82C113.257 12.62 112.913 12.352 112.657 12.016C112.409 11.68 112.273 11.308 112.249 10.9H113.941C113.973 11.156 114.097 11.368 114.313 11.536C114.537 11.704 114.813 11.788 115.141 11.788C115.461 11.788 115.709 11.724 115.885 11.596C116.069 11.468 116.161 11.304 116.161 11.104C116.161 10.888 116.049 10.728 115.825 10.624C115.609 10.512 115.261 10.392 114.781 10.264C114.285 10.144 113.877 10.02 113.557 9.892C113.245 9.764 112.973 9.568 112.741 9.304C112.517 9.04 112.405 8.684 112.405 8.236C112.405 7.868 112.509 7.532 112.717 7.228C112.933 6.924 113.237 6.684 113.629 6.508C114.029 6.332 114.497 6.244 115.033 6.244C115.825 6.244 116.457 6.444 116.929 6.844C117.401 7.236 117.661 7.768 117.709 8.44H116.101C116.077 8.176 115.965 7.968 115.765 7.816C115.573 7.656 115.313 7.576 114.985 7.576C114.681 7.576 114.445 7.632 114.277 7.744C114.117 7.856 114.037 8.012 114.037 8.212C114.037 8.436 114.149 8.608 114.373 8.728C114.597 8.84 114.945 8.956 115.417 9.076C115.897 9.196 116.293 9.32 116.605 9.448C116.917 9.576 117.185 9.776 117.409 10.048C117.641 10.312 117.761 10.664 117.769 11.104C117.769 11.488 117.661 11.832 117.445 12.136C117.237 12.44 116.933 12.68 116.533 12.856C116.141 13.024 115.681 13.108 115.153 13.108Z" fill="#00936C"/>
<circle cx="7.5" cy="8.5" r="7" stroke="#00936C"/>
<rect x="2.57141" y="7.85717" width="9.42857" height="1.71429" rx="0.857143" fill="#00936C"/>
<rect x="6.42855" y="13.4286" width="9.42857" height="1.71429" rx="0.857143" transform="rotate(-90 6.42855 13.4286)" fill="#00936C"/>
</svg>
