<svg width="120" height="18" viewBox="0 0 120 18" fill="none" xmlns="http://www.w3.org/2000/svg">
<path d="M25.964 11.404H22.628L22.076 13H20.312L23.324 4.612H25.28L28.292 13H26.516L25.964 11.404ZM25.508 10.06L24.296 6.556L23.084 10.06H25.508ZM32.3458 4.624C33.2258 4.624 33.9978 4.796 34.6618 5.14C35.3338 5.484 35.8498 5.976 36.2098 6.616C36.5778 7.248 36.7618 7.984 36.7618 8.824C36.7618 9.664 36.5778 10.4 36.2098 11.032C35.8498 11.656 35.3338 12.14 34.6618 12.484C33.9978 12.828 33.2258 13 32.3458 13H29.4178V4.624H32.3458ZM32.2858 11.572C33.1658 11.572 33.8458 11.332 34.3258 10.852C34.8058 10.372 35.0458 9.696 35.0458 8.824C35.0458 7.952 34.8058 7.272 34.3258 6.784C33.8458 6.288 33.1658 6.04 32.2858 6.04H31.0978V11.572H32.2858ZM40.9474 4.624C41.8274 4.624 42.5994 4.796 43.2634 5.14C43.9354 5.484 44.4514 5.976 44.8114 6.616C45.1794 7.248 45.3634 7.984 45.3634 8.824C45.3634 9.664 45.1794 10.4 44.8114 11.032C44.4514 11.656 43.9354 12.14 43.2634 12.484C42.5994 12.828 41.8274 13 40.9474 13H38.0194V4.624H40.9474ZM40.8874 11.572C41.7674 11.572 42.4474 11.332 42.9274 10.852C43.4074 10.372 43.6474 9.696 43.6474 8.824C43.6474 7.952 43.4074 7.272 42.9274 6.784C42.4474 6.288 41.7674 6.04 40.8874 6.04H39.6994V11.572H40.8874ZM55.5883 7.216C55.5883 7.664 55.4803 8.084 55.2643 8.476C55.0563 8.868 54.7243 9.184 54.2683 9.424C53.8203 9.664 53.2523 9.784 52.5643 9.784H51.1603V13H49.4803V4.624H52.5643C53.2123 4.624 53.7643 4.736 54.2203 4.96C54.6763 5.184 55.0163 5.492 55.2403 5.884C55.4723 6.276 55.5883 6.72 55.5883 7.216ZM52.4923 8.428C52.9563 8.428 53.3003 8.324 53.5243 8.116C53.7483 7.9 53.8603 7.6 53.8603 7.216C53.8603 6.4 53.4043 5.992 52.4923 5.992H51.1603V8.428H52.4923ZM58.4611 7.384C58.6771 7.032 58.9571 6.756 59.3011 6.556C59.6531 6.356 60.0531 6.256 60.5011 6.256V8.02H60.0571C59.5291 8.02 59.1291 8.144 58.8571 8.392C58.5931 8.64 58.4611 9.072 58.4611 9.688V13H56.7811V6.352H58.4611V7.384ZM64.5847 13.108C63.9447 13.108 63.3687 12.968 62.8567 12.688C62.3447 12.4 61.9407 11.996 61.6447 11.476C61.3567 10.956 61.2127 10.356 61.2127 9.676C61.2127 8.996 61.3607 8.396 61.6567 7.876C61.9607 7.356 62.3727 6.956 62.8927 6.676C63.4127 6.388 63.9927 6.244 64.6327 6.244C65.2727 6.244 65.8527 6.388 66.3727 6.676C66.8927 6.956 67.3007 7.356 67.5967 7.876C67.9007 8.396 68.0527 8.996 68.0527 9.676C68.0527 10.356 67.8967 10.956 67.5847 11.476C67.2807 11.996 66.8647 12.4 66.3367 12.688C65.8167 12.968 65.2327 13.108 64.5847 13.108ZM64.5847 11.644C64.8887 11.644 65.1727 11.572 65.4367 11.428C65.7087 11.276 65.9247 11.052 66.0847 10.756C66.2447 10.46 66.3247 10.1 66.3247 9.676C66.3247 9.044 66.1567 8.56 65.8207 8.224C65.4927 7.88 65.0887 7.708 64.6087 7.708C64.1287 7.708 63.7247 7.88 63.3967 8.224C63.0767 8.56 62.9167 9.044 62.9167 9.676C62.9167 10.308 63.0727 10.796 63.3847 11.14C63.7047 11.476 64.1047 11.644 64.5847 11.644ZM68.853 9.676C68.853 8.988 68.993 8.388 69.273 7.876C69.553 7.356 69.941 6.956 70.437 6.676C70.933 6.388 71.501 6.244 72.141 6.244C72.965 6.244 73.645 6.452 74.181 6.868C74.725 7.276 75.089 7.852 75.273 8.596H73.461C73.365 8.308 73.201 8.084 72.969 7.924C72.745 7.756 72.465 7.672 72.129 7.672C71.649 7.672 71.269 7.848 70.989 8.2C70.709 8.544 70.569 9.036 70.569 9.676C70.569 10.308 70.709 10.8 70.989 11.152C71.269 11.496 71.649 11.668 72.129 11.668C72.809 11.668 73.253 11.364 73.461 10.756H75.273C75.089 11.476 74.725 12.048 74.181 12.472C73.637 12.896 72.957 13.108 72.141 13.108C71.501 13.108 70.933 12.968 70.437 12.688C69.941 12.4 69.553 12 69.273 11.488C68.993 10.968 68.853 10.364 68.853 9.676ZM82.6838 9.532C82.6838 9.772 82.6678 9.988 82.6358 10.18H77.7758C77.8158 10.66 77.9838 11.036 78.2798 11.308C78.5758 11.58 78.9398 11.716 79.3718 11.716C79.9958 11.716 80.4398 11.448 80.7038 10.912H82.5158C82.3238 11.552 81.9558 12.08 81.4118 12.496C80.8678 12.904 80.1998 13.108 79.4078 13.108C78.7678 13.108 78.1918 12.968 77.6798 12.688C77.1758 12.4 76.7798 11.996 76.4918 11.476C76.2118 10.956 76.0718 10.356 76.0718 9.676C76.0718 8.988 76.2118 8.384 76.4918 7.864C76.7718 7.344 77.1638 6.944 77.6678 6.664C78.1718 6.384 78.7518 6.244 79.4078 6.244C80.0398 6.244 80.6038 6.38 81.0998 6.652C81.6038 6.924 81.9918 7.312 82.2638 7.816C82.5438 8.312 82.6838 8.884 82.6838 9.532ZM80.9438 9.052C80.9358 8.62 80.7798 8.276 80.4758 8.02C80.1718 7.756 79.7998 7.624 79.3598 7.624C78.9438 7.624 78.5918 7.752 78.3038 8.008C78.0238 8.256 77.8518 8.604 77.7878 9.052H80.9438ZM83.478 9.652C83.478 8.98 83.61 8.384 83.874 7.864C84.146 7.344 84.514 6.944 84.978 6.664C85.442 6.384 85.958 6.244 86.526 6.244C86.958 6.244 87.37 6.34 87.762 6.532C88.154 6.716 88.466 6.964 88.698 7.276V4.12H90.402V13H88.698V12.016C88.49 12.344 88.198 12.608 87.822 12.808C87.446 13.008 87.01 13.108 86.514 13.108C85.954 13.108 85.442 12.964 84.978 12.676C84.514 12.388 84.146 11.984 83.874 11.464C83.61 10.936 83.478 10.332 83.478 9.652ZM88.71 9.676C88.71 9.268 88.63 8.92 88.47 8.632C88.31 8.336 88.094 8.112 87.822 7.96C87.55 7.8 87.258 7.72 86.946 7.72C86.634 7.72 86.346 7.796 86.082 7.948C85.818 8.1 85.602 8.324 85.434 8.62C85.274 8.908 85.194 9.252 85.194 9.652C85.194 10.052 85.274 10.404 85.434 10.708C85.602 11.004 85.818 11.232 86.082 11.392C86.354 11.552 86.642 11.632 86.946 11.632C87.258 11.632 87.55 11.556 87.822 11.404C88.094 11.244 88.31 11.02 88.47 10.732C88.63 10.436 88.71 10.084 88.71 9.676ZM98.3188 6.352V13H96.6268V12.16C96.4108 12.448 96.1268 12.676 95.7748 12.844C95.4308 13.004 95.0548 13.084 94.6468 13.084C94.1268 13.084 93.6668 12.976 93.2668 12.76C92.8668 12.536 92.5508 12.212 92.3188 11.788C92.0948 11.356 91.9828 10.844 91.9828 10.252V6.352H93.6628V10.012C93.6628 10.54 93.7948 10.948 94.0588 11.236C94.3228 11.516 94.6828 11.656 95.1388 11.656C95.6028 11.656 95.9668 11.516 96.2308 11.236C96.4948 10.948 96.6268 10.54 96.6268 10.012V6.352H98.3188ZM101.656 7.384C101.872 7.032 102.152 6.756 102.496 6.556C102.848 6.356 103.248 6.256 103.696 6.256V8.02H103.252C102.724 8.02 102.324 8.144 102.052 8.392C101.788 8.64 101.656 9.072 101.656 9.688V13H99.9764V6.352H101.656V7.384ZM111.008 9.532C111.008 9.772 110.992 9.988 110.96 10.18H106.1C106.14 10.66 106.308 11.036 106.604 11.308C106.9 11.58 107.264 11.716 107.696 11.716C108.32 11.716 108.764 11.448 109.028 10.912H110.84C110.648 11.552 110.28 12.08 109.736 12.496C109.192 12.904 108.524 13.108 107.732 13.108C107.092 13.108 106.516 12.968 106.004 12.688C105.5 12.4 105.104 11.996 104.816 11.476C104.536 10.956 104.396 10.356 104.396 9.676C104.396 8.988 104.536 8.384 104.816 7.864C105.096 7.344 105.488 6.944 105.992 6.664C106.496 6.384 107.076 6.244 107.732 6.244C108.364 6.244 108.928 6.38 109.424 6.652C109.928 6.924 110.316 7.312 110.588 7.816C110.868 8.312 111.008 8.884 111.008 9.532ZM109.268 9.052C109.26 8.62 109.104 8.276 108.8 8.02C108.496 7.756 108.124 7.624 107.684 7.624C107.268 7.624 106.916 7.752 106.628 8.008C106.348 8.256 106.176 8.604 106.112 9.052H109.268ZM114.778 13.108C114.234 13.108 113.746 13.012 113.314 12.82C112.882 12.62 112.538 12.352 112.282 12.016C112.034 11.68 111.898 11.308 111.874 10.9H113.566C113.598 11.156 113.722 11.368 113.938 11.536C114.162 11.704 114.438 11.788 114.766 11.788C115.086 11.788 115.334 11.724 115.51 11.596C115.694 11.468 115.786 11.304 115.786 11.104C115.786 10.888 115.674 10.728 115.45 10.624C115.234 10.512 114.886 10.392 114.406 10.264C113.91 10.144 113.502 10.02 113.182 9.892C112.87 9.764 112.598 9.568 112.366 9.304C112.142 9.04 112.03 8.684 112.03 8.236C112.03 7.868 112.134 7.532 112.342 7.228C112.558 6.924 112.862 6.684 113.254 6.508C113.654 6.332 114.122 6.244 114.658 6.244C115.45 6.244 116.082 6.444 116.554 6.844C117.026 7.236 117.286 7.768 117.334 8.44H115.726C115.702 8.176 115.59 7.968 115.39 7.816C115.198 7.656 114.938 7.576 114.61 7.576C114.306 7.576 114.07 7.632 113.902 7.744C113.742 7.856 113.662 8.012 113.662 8.212C113.662 8.436 113.774 8.608 113.998 8.728C114.222 8.84 114.57 8.956 115.042 9.076C115.522 9.196 115.918 9.32 116.23 9.448C116.542 9.576 116.81 9.776 117.034 10.048C117.266 10.312 117.386 10.664 117.394 11.104C117.394 11.488 117.286 11.832 117.07 12.136C116.862 12.44 116.558 12.68 116.158 12.856C115.766 13.024 115.306 13.108 114.778 13.108Z" fill="#00936C"/>
<circle cx="7.5" cy="9.5" r="7" stroke="#00936C"/>
<rect x="2.57141" y="8.85718" width="9.42857" height="1.71429" rx="0.857143" fill="#00936C"/>
<rect x="6.42856" y="14.4286" width="9.42857" height="1.71429" rx="0.857143" transform="rotate(-90 6.42856 14.4286)" fill="#00936C"/>
</svg>
