<?xml version="1.0" encoding="utf-8"?>
<!-- Generator: Adobe Illustrator 27.5.0, SVG Export Plug-In . SVG Version: 6.00 Build 0)  -->
<svg version="1.1" xmlns="http://www.w3.org/2000/svg" xmlns:xlink="http://www.w3.org/1999/xlink" x="0px" y="0px"
	 viewBox="0 0 500 500" style="enable-background:new 0 0 500 500;" xml:space="preserve">
<g id="BACKGROUND">
	<rect x="0.311" y="0.301" style="fill:#CFB994;" width="500" height="500"/>
</g>
<g id="OBJECTS">
	<path style="opacity:0.14;" d="M400.653,426.036c-12.632-5.042-12.725-10.066-17.129-11.428
		c-4.404-1.362-26.065,5.904-41.329,14.694c-15.264,8.79-97.261,36.226-121.953,43.747c-20.597,6.274-28.898,3.078-31.087,1.845
		c-0.361,0.827-0.454,1.575-0.228,2.224c2.582,7.401,43.581-0.172,91.574-16.914c30.073-10.491,55.751-22.092,70.103-31.115
		c8.227-4.432,23.732-10.283,27.829-11.114c5.163-1.047,10.338,1.574,12.185,2.652c3.063,2.492,6.779,4.434,10.931,5.811
		C401.262,426.3,400.971,426.163,400.653,426.036z"/>
	<g>
		<g>
			<path style="opacity:0.1;" d="M260.522,31.112c-107.85-7.063-201.005,74.641-208.068,182.491
				c-4.133,63.1,22.13,121.16,66.228,159.901l24.215,68.084l25.224-7.701l12.881,17.546l49.172-30.134
				c1.585,0.142,3.174,0.268,4.77,0.373c107.851,7.063,201.006-74.641,208.069-182.491S368.373,38.175,260.522,31.112z"/>
			<g>
				<g>
					<g>
						<circle style="fill:#FDFDF6;" cx="244.117" cy="224.758" r="195.698"/>
						
							<ellipse transform="matrix(0.7071 -0.7071 0.7071 0.7071 -87.4273 238.4468)" style="fill:#E0D7AB;" cx="244.117" cy="224.757" rx="189.159" ry="189.159"/>
						<circle style="fill:#E45747;" cx="244.117" cy="224.758" r="148.058"/>
					</g>
					<g>
						<g>
							<polygon style="fill:#EE6A25;" points="38.792,172.89 311.428,31.15 453.218,304.63 178,445.678 							"/>
							<polygon style="fill:#F5BA1F;" points="43.63,150.617 333.514,48.696 435.367,339.422 143.024,440.295 							"/>
						</g>
						<g>
							<path style="fill:#EE6A25;" d="M160.001,400.728c0,0-2.383-8.676-8.744-7.007c-9.502,2.492,3.229,24.503,3.229,24.503
								s16.005-5.986,18.511-13.234C174.64,400.24,168.006,395.734,160.001,400.728z"/>
							<path style="fill:#EE6A25;" d="M141.744,380.498c-0.073,0.895-0.857,1.561-1.751,1.488c-0.895-0.073-1.561-0.857-1.488-1.752
								c0.073-0.895,0.857-1.561,1.751-1.488C141.151,378.819,141.817,379.604,141.744,380.498z"/>
							<path style="fill:#EE6A25;" d="M65.08,176.102c-0.073,0.895-0.857,1.561-1.751,1.488c-0.895-0.073-1.561-0.857-1.488-1.751
								s0.857-1.561,1.751-1.488C64.486,174.423,65.152,175.208,65.08,176.102z"/>
							<path style="fill:#EE6A25;" d="M128.729,353.979c-0.073,0.895-0.857,1.561-1.751,1.488c-0.895-0.073-1.561-0.857-1.488-1.752
								c0.073-0.895,0.857-1.561,1.752-1.488C128.135,352.301,128.801,353.085,128.729,353.979z"/>
							<path style="fill:#EE6A25;" d="M191.692,410.902c-0.073,0.895-0.857,1.561-1.751,1.488c-0.895-0.073-1.561-0.857-1.488-1.751
								c0.073-0.895,0.857-1.561,1.752-1.488C191.098,409.223,191.764,410.008,191.692,410.902z"/>
							<path style="fill:#EE6A25;" d="M175.661,376.738c-0.073,0.895-0.857,1.561-1.752,1.488c-0.895-0.073-1.561-0.857-1.488-1.752
								c0.073-0.895,0.857-1.561,1.752-1.488C175.068,375.06,175.734,375.844,175.661,376.738z"/>
							<path style="fill:#EE6A25;" d="M218.994,389.798c-0.073,0.895-0.857,1.561-1.752,1.488c-0.895-0.073-1.561-0.857-1.488-1.752
								c0.073-0.894,0.857-1.561,1.751-1.488C218.401,388.12,219.067,388.904,218.994,389.798z"/>
							<path style="fill:#EE6A25;" d="M75.211,148.709c-0.073,0.895-0.857,1.561-1.752,1.488c-0.895-0.073-1.561-0.857-1.488-1.751
								c0.073-0.895,0.857-1.561,1.752-1.488C74.618,147.03,75.284,147.814,75.211,148.709z"/>
							<path style="fill:#EE6A25;" d="M359.347,343.411c-0.073,0.895-0.857,1.561-1.752,1.488c-0.895-0.073-1.561-0.857-1.488-1.752
								c0.073-0.895,0.857-1.561,1.751-1.488C358.754,341.732,359.42,342.516,359.347,343.411z"/>
							<path style="fill:#EE6A25;" d="M415.981,325.573c-0.073,0.895-0.857,1.561-1.751,1.488c-0.895-0.073-1.561-0.857-1.488-1.751
								c0.073-0.895,0.857-1.561,1.752-1.488C415.388,323.895,416.054,324.679,415.981,325.573z"/>
							<path style="fill:#EE6A25;" d="M325.638,369.26c-0.073,0.895-0.857,1.561-1.751,1.488c-0.895-0.073-1.561-0.857-1.488-1.751
								c0.073-0.895,0.857-1.561,1.751-1.488C325.045,367.582,325.711,368.366,325.638,369.26z"/>
							<path style="fill:#EE6A25;" d="M389.46,347.87c-0.073,0.895-0.857,1.56-1.751,1.488c-0.895-0.073-1.561-0.857-1.488-1.751
								c0.073-0.895,0.857-1.561,1.752-1.488C388.866,346.191,389.532,346.975,389.46,347.87z"/>
							<path style="fill:#EE6A25;" d="M257.917,392.341c-0.073,0.894-0.857,1.561-1.751,1.488c-0.895-0.073-1.561-0.857-1.488-1.751
								s0.857-1.561,1.751-1.488C257.323,390.662,257.989,391.446,257.917,392.341z"/>
						</g>
					</g>
				</g>
				<g>
					<path style="opacity:0.14;" d="M275.601,369.377c0,0-3.355,4.242-1.565,6.896s-12.957-1.055-12.905,4.467
						s7.852,2.144,7.852,2.144s-8.918,4.792-4.219,8.686c4.699,3.894,7.302-3.419,7.302-3.419s-2.104,7.353,1.304,8.634
						c3.407,1.281,8.745-8.819,8.745-8.819l1.944-3.869c0,0-1.55-7.135,11.17-21.651
						C307.949,347.931,275.601,369.377,275.601,369.377z"/>
					<g>
						<g>
							<g>
								<path style="fill:#05893D;" d="M356.387,296.773c0,0,85.951-56.96,95.905-59.969c17.638-5.33-70.584,59.316-70.584,59.316
									L356.387,296.773z"/>
								<path style="fill:#026329;" d="M373.552,279.993c0,0,33.555-34.724,44.305-30.014c0,0-32.832,22.945-52.463,68.015
									l-24.502,6.901l36.678-50.039L373.552,279.993z"/>
								<path style="fill:#01B05E;" d="M352.655,304.141c0,0,45.455-26.853,74.752-29.778l0,0
									c-3.029,14.38-77.637,43.301-77.637,43.301L352.655,304.141z"/>
								<path style="fill:#6AC761;" d="M350.275,312.022c0,0,22.63-18.843,72.954-24.231c0,0,15.72-2.526,16.448-0.374
									c3.462,10.233-107.904,47.541-107.904,47.541L350.275,312.022z"/>
								<path style="fill:#54AB4E;" d="M391.457,247.854c-28.437,26.529-55.418,60.282-62.316,73.043
									c-6.898,12.761-20.896,26.358-20.896,26.358l20.175,6.292c0,0,14.159-9.132,25.897-15.74
									c41.301-23.251,82.263-34.357,115.242-35.078c0,0-6.511-10.028-44.556-3.391c0,0-39.535,6.04-87.854,33.082
									c0,0,51.002-80.942,87.597-110.039C424.748,222.381,429.696,212.18,391.457,247.854z"/>
							</g>
							<g>
								<path style="fill:#B38156;" d="M286.979,386.563c0,0,0.944,11.08-2.689,12.884c-3.633,1.804-0.232-15.35-0.232-15.35
									L286.979,386.563z"/>
								<path style="fill:#B38156;" d="M283.494,383.685c0,0-4.549,11.211-8.352,11.362c-3.804,0.151,7.172-15.055,7.172-15.055
									L283.494,383.685z"/>
								<path style="fill:#B38156;" d="M278.018,377.21c0,0-11.624-0.569-13.402,2.953c-1.779,3.523,16.07-0.239,16.07-0.239
									L278.018,377.21z"/>
								<path style="fill:#B38156;" d="M279.75,380.421c0,0-11.745,4.042-12.019,7.708c-0.274,3.667,15.805-6.455,15.805-6.455
									L279.75,380.421z"/>
							</g>
							<path style="fill:#FFF1CC;" d="M332.897,350.757c0,0-9.806,7.711-21.522,17.885c-11.716,10.174-19.036,24.105-30.229,14.151
								c-11.193-9.954,27.1-35.538,27.1-35.538l8.171-9.507c0,0,2.994,1.973,1.001,7.388c-1.994,5.415,5.585,2.822,10.616,1.27
								C333.065,344.855,332.897,350.757,332.897,350.757z"/>
						</g>
						<path style="opacity:0.61;fill:#FFFFFF;" d="M305.033,365.252c0,0-3.031,0.255-9.996,5.707
							c-6.965,5.453-8.409,10.853-4.422,11.178c3.987,0.325,9.243-8.779,11.857-10.071
							C305.085,370.774,312.254,362.83,305.033,365.252z"/>
					</g>
				</g>
				<g>
					<g>
						<g>
							<g>
								<g>
									<g>
										<path style="fill:#B5E6E2;" d="M129.326,326.529l-14.167-16.804c-10.875,9.116-29.545,18.953-36.281,13.688
											c-6.739-5.268-14.881-17.467-20.742-31.079c-6.549-15.209-8.198-27.243-6.928-32.423
											c2.156-8.797,19.47-14.134,27.037-15.222l-3.127-21.756c-3.975,0.572-39.019,6.314-45.256,31.742
											c-5.955,24.278,15.624,70.532,35.481,86.054C89.118,359.313,125.281,329.939,129.326,326.529z"/>
									</g>
								</g>
								<path style="fill:#8DDED8;" d="M49.411,253.306c6.893-9.658,27.23-14.566,27.23-14.566l0.786,0.258l0.818,5.691
									c-7.567,1.088-24.881,6.425-27.037,15.222c-1.271,5.18,0.379,17.214,6.928,32.423c5.861,13.612,14.003,25.81,20.742,31.079
									c2.441,1.908,6.451,1.826,11.087,0.521c-0.285,0.254-0.582,0.484-0.903,0.664c-13.545,7.573-26.127-13.986-32.679-28.393
									C49.831,281.798,42.518,262.964,49.411,253.306z"/>
								<path style="fill:#8DDED8;" d="M44.27,313.894c8.929,13.583,20.94,30.13,35.935,30.059
									c16.891-0.08,39.653-17.872,39.653-17.872l6.741,2.638c-9.731,7.519-40.303,28.388-61.256,12.01
									C58.07,335.044,50.568,325.234,44.27,313.894z"/>
							</g>
							<path style="opacity:0.61;fill:#FFFFFF;" d="M40.949,242.025c0,0,3.647-2.725,5.29-2.712
								c1.643,0.013,5.343,2.605-0.855,10.045c-6.198,7.44-10.553,8.081-10.419,3.54S40.949,242.025,40.949,242.025z"/>
							<path style="opacity:0.61;fill:#FFFFFF;" d="M59.931,231.5c0,0-4.635-0.521-7.427,4.047s3.152,4.569,6.893,2.231
								C63.137,235.441,64.045,230.712,59.931,231.5z"/>
							<path style="opacity:0.61;fill:#FFFFFF;" d="M67.589,335.576c0,0,2.179,4.124,7.526,3.86
								c5.347-0.264,2.001-5.177-2.036-6.953C69.041,330.709,64.622,332.62,67.589,335.576z"/>
						</g>
						<g>
							<g>
								<g>
									<g>
										<path style="fill:#B5E6E2;" d="M390.492,183.384l-5.235-21.347c13.772-3.42,32.719-12.713,32.431-21.257
											c-0.288-8.549-5.35-22.314-12.898-35.068c-8.434-14.25-17.187-22.672-22.122-24.696
											c-8.379-3.439-22.89,7.409-28.227,12.884l-15.739-15.341c2.803-2.876,28.084-27.814,52.308-17.877
											c23.127,9.487,47.797,54.169,48.644,79.359C440.669,170.2,395.632,182.124,390.492,183.384z"/>
									</g>
								</g>
								<path style="fill:#8DDED8;" d="M378.389,75.674c-11.865-0.118-27.81,13.426-27.81,13.426l-0.254,0.787l4.117,4.013
									c5.336-5.474,19.848-16.323,28.227-12.884c4.934,2.024,13.688,10.445,22.122,24.696
									c7.548,12.754,12.61,26.519,12.898,35.068c0.104,3.096-2.324,6.289-6.109,9.267c0.374-0.081,0.734-0.185,1.069-0.339
									c14.098-6.485,4.086-29.352-3.697-43.132C401.167,92.795,390.254,75.792,378.389,75.674z"/>
								<path style="fill:#8DDED8;" d="M430.38,107.205c5.718,15.216,12.015,34.669,3.126,46.745
									c-10.013,13.603-37.798,21.518-37.798,21.518l-1.839,7.001c11.808-3.435,46.68-15.849,45.786-42.429
									C439.344,130.815,435.836,118.974,430.38,107.205z"/>
							</g>
							<path style="opacity:0.61;fill:#FFFFFF;" d="M374.257,62.191c0,0-4.35,1.342-5.307,2.678
								c-0.957,1.336-1.042,5.852,8.621,5.226c9.663-0.627,12.746-3.768,8.997-6.335S374.257,62.191,374.257,62.191z"/>
							<path style="opacity:0.61;fill:#FFFFFF;" d="M354.571,71.331c0,0,2.309-4.053,7.645-3.618
								c5.336,0.435,1.835,5.238-2.257,6.884C355.867,76.243,351.511,74.192,354.571,71.331z"/>
							<path style="opacity:0.61;fill:#FFFFFF;" d="M434.168,138.821c0,0,2.05,4.19-1.313,8.356
								c-3.363,4.166-5.363-1.432-4.419-5.741C429.378,137.128,433.526,134.682,434.168,138.821z"/>
						</g>
						<g>
							<circle style="fill:#FFFFFF;" cx="235.435" cy="208.996" r="166.041"/>
							
								<ellipse transform="matrix(0.7071 -0.7071 0.7071 0.7071 -78.8252 227.691)" style="fill:#EFE9D8;" cx="235.435" cy="208.996" rx="160.493" ry="160.493"/>
							
								<ellipse transform="matrix(0.7071 -0.7071 0.7071 0.7071 -78.8252 227.691)" style="fill:#D9CAA2;" cx="235.435" cy="208.996" rx="134.34" ry="134.34"/>
							
								<ellipse transform="matrix(0.7071 -0.7071 0.7071 0.7071 -78.8252 227.6909)" style="fill:#C1A865;" cx="235.435" cy="208.996" rx="129.127" ry="129.127"/>
							
								<ellipse transform="matrix(0.7071 -0.7071 0.7071 0.7071 -78.8252 227.691)" style="fill:#BC531D;" cx="235.435" cy="208.996" rx="125.62" ry="125.62"/>
						</g>
					</g>
					<g>
						<g>
							<path style="fill:#86A039;" d="M242.903,185.18c0.163,3.354-2.425,6.205-5.779,6.367c-3.354,0.162-6.205-2.425-6.367-5.779
								c-0.163-3.354,2.425-6.205,5.779-6.367C239.89,179.239,242.741,181.826,242.903,185.18z"/>
							<path style="opacity:0.1;" d="M237.124,191.548c3.354-0.163,5.941-3.013,5.779-6.367c-0.088-1.822-0.974-3.414-2.299-4.465
								c1.183,1.929,1.745,6.532-3.058,7.736c-4.942,1.24-6.451-2.428-6.772-3.459c-0.02,0.256-0.03,0.514-0.017,0.776
								C230.92,189.123,233.77,191.71,237.124,191.548z"/>
							<path style="opacity:0.3;fill:#F4F6DF;" d="M237.027,181.632c0.356,0.716-0.254,1.744-1.363,2.296
								c-1.109,0.552-2.298,0.42-2.654-0.296c-0.356-0.716,0.254-1.744,1.363-2.296C235.482,180.783,236.67,180.916,237.027,181.632
								z"/>
						</g>
						<g>
							<path style="fill:#9CA039;" d="M313.68,174.118c0.162,3.354-2.425,6.205-5.779,6.367c-3.354,0.162-6.205-2.425-6.367-5.779
								c-0.162-3.354,2.425-6.205,5.779-6.367C310.667,168.177,313.518,170.764,313.68,174.118z"/>
							<path style="opacity:0.1;" d="M307.901,180.485c3.354-0.162,5.941-3.013,5.779-6.367c-0.088-1.822-0.974-3.414-2.299-4.465
								c1.183,1.929,1.745,6.531-3.058,7.736c-4.942,1.24-6.451-2.428-6.772-3.459c-0.02,0.255-0.03,0.514-0.017,0.776
								C301.697,178.06,304.547,180.648,307.901,180.485z"/>
							<path style="opacity:0.3;fill:#F4F6DF;" d="M307.804,170.569c0.356,0.716-0.254,1.744-1.363,2.296
								c-1.109,0.552-2.298,0.42-2.654-0.296c-0.356-0.716,0.254-1.744,1.363-2.296
								C306.259,169.721,307.448,169.854,307.804,170.569z"/>
						</g>
						<g>
							<path style="fill:#9CA039;" d="M281.687,119.341c0.163,3.354-2.425,6.205-5.779,6.367c-3.354,0.162-6.205-2.425-6.367-5.779
								c-0.162-3.354,2.425-6.205,5.779-6.367C278.674,113.399,281.524,115.987,281.687,119.341z"/>
							<path style="opacity:0.1;" d="M275.908,125.708c3.354-0.162,5.941-3.013,5.779-6.367c-0.088-1.822-0.974-3.414-2.298-4.465
								c1.183,1.929,1.744,6.531-3.058,7.736c-4.942,1.24-6.451-2.428-6.772-3.459c-0.02,0.256-0.03,0.514-0.017,0.776
								C269.703,123.283,272.554,125.87,275.908,125.708z"/>
							<path style="opacity:0.3;fill:#F4F6DF;" d="M275.811,115.792c0.356,0.716-0.254,1.744-1.364,2.296
								c-1.109,0.552-2.298,0.42-2.654-0.296c-0.356-0.716,0.254-1.744,1.364-2.296
								C274.266,114.944,275.454,115.076,275.811,115.792z"/>
						</g>
						<g>
							<path style="fill:#9CA039;" d="M143.345,146.074c0.163,3.354-2.425,6.205-5.779,6.367c-3.354,0.163-6.205-2.425-6.367-5.779
								c-0.162-3.354,2.425-6.205,5.779-6.367C140.332,140.133,143.183,142.72,143.345,146.074z"/>
							<path style="opacity:0.1;" d="M137.567,152.441c3.354-0.162,5.941-3.013,5.779-6.367c-0.088-1.822-0.974-3.414-2.299-4.465
								c1.183,1.929,1.745,6.531-3.058,7.736c-4.942,1.24-6.451-2.428-6.772-3.459c-0.02,0.255-0.03,0.514-0.017,0.776
								C131.362,150.016,134.213,152.604,137.567,152.441z"/>
							<path style="opacity:0.3;fill:#F4F6DF;" d="M137.469,142.525c0.356,0.716-0.254,1.744-1.363,2.296
								c-1.109,0.552-2.298,0.42-2.654-0.296c-0.356-0.716,0.254-1.744,1.363-2.296C135.925,141.677,137.113,141.81,137.469,142.525
								z"/>
						</g>
						<g>
							<path style="fill:#9CB239;" d="M265.969,321.208c-0.921,3.229-4.285,5.1-7.515,4.179c-3.229-0.921-5.1-4.285-4.179-7.515
								c0.921-3.229,4.286-5.1,7.515-4.179C265.019,314.615,266.89,317.979,265.969,321.208z"/>
							<path style="opacity:0.1;" d="M258.454,325.388c3.229,0.921,6.594-0.95,7.515-4.179c0.5-1.754,0.172-3.546-0.746-4.966
								c0.503,2.206-0.441,6.746-5.376,6.348c-5.079-0.41-5.332-4.367-5.307-5.447c-0.101,0.236-0.193,0.477-0.265,0.73
								C253.354,321.102,255.225,324.467,258.454,325.388z"/>
							<path style="opacity:0.3;fill:#F4F6DF;" d="M261.54,315.963c0.108,0.792-0.799,1.57-2.027,1.738
								c-1.228,0.168-2.311-0.339-2.419-1.131c-0.108-0.792,0.799-1.57,2.027-1.738C260.349,314.665,261.432,315.171,261.54,315.963
								z"/>
						</g>
						<g>
							<path style="fill:#86A039;" d="M246.481,206.394c-0.921,3.229-4.286,5.1-7.515,4.179c-3.229-0.921-5.1-4.285-4.179-7.515
								c0.921-3.229,4.286-5.1,7.515-4.179C245.531,199.8,247.402,203.165,246.481,206.394z"/>
							<path style="opacity:0.1;" d="M238.966,210.573c3.229,0.921,6.594-0.95,7.515-4.179c0.5-1.754,0.172-3.546-0.746-4.966
								c0.502,2.206-0.441,6.746-5.376,6.348c-5.079-0.41-5.332-4.367-5.306-5.447c-0.101,0.236-0.193,0.477-0.265,0.73
								C233.866,206.288,235.737,209.652,238.966,210.573z"/>
							<path style="opacity:0.3;fill:#F4F6DF;" d="M242.052,201.149c0.108,0.792-0.799,1.57-2.027,1.738
								c-1.228,0.168-2.311-0.339-2.419-1.131c-0.108-0.792,0.799-1.57,2.027-1.738C240.861,199.85,241.944,200.357,242.052,201.149
								z"/>
						</g>
						<g>
							<g>
								<g>
									<path style="fill:#4A4A6A;" d="M265.5,214.8c3.965,4.841,2.055,12.962-4.267,18.14c-6.321,5.177-14.66,5.45-18.625,0.609
										c-3.965-4.841-2.055-12.962,4.267-18.14C253.197,210.232,261.535,209.959,265.5,214.8z"/>
								</g>
							</g>
							<path style="opacity:0.6;" d="M247.525,233.78c-0.972,0.941-2.713,0.718-3.889-0.497c-1.176-1.215-1.342-2.962-0.37-3.903
								c0.972-0.94,2.713-0.718,3.889,0.497C248.331,231.092,248.497,232.839,247.525,233.78z"/>
							<path style="opacity:0.15;" d="M241.519,231.825c0.297,0.607,0.652,1.188,1.09,1.724c3.965,4.841,12.304,4.568,18.625-0.609
								c6.321-5.177,8.231-13.299,4.267-18.14c-0.177-0.216-0.372-0.41-0.566-0.605c0.067,3.341-0.37,8.652-6.002,14.142
								C251.748,235.339,244.801,233.496,241.519,231.825z"/>
							<path style="opacity:0.2;fill:#F4F6DF;" d="M252.107,216.777c0.996,0.935,0.244,3.355-1.681,5.406
								c-1.924,2.051-4.292,2.956-5.288,2.021c-0.996-0.935-0.243-3.355,1.681-5.406
								C248.743,216.747,251.111,215.843,252.107,216.777z"/>
						</g>
						<g>
							<path style="fill:#FFC435;" d="M215.232,211.376c0,0-1.617-4.728-4.849-4.368c-3.232,0.36-4.416,1.473-5.254,3.748
								c-0.837,2.275,1.031,6.32,4.407,6.271C212.912,216.978,214.897,212.286,215.232,211.376z"/>
							<g style="opacity:0.48;">
								<path style="fill:#FFFFFF;" d="M210.3,208.411c-2.361-0.058-4.221,1.344-4.551,3.724c-0.124,0.895,1.26,1.136,1.385,0.236
									c0.249-1.798,1.537-2.604,3.289-2.56C211.329,209.833,211.196,208.433,210.3,208.411L210.3,208.411z"/>
							</g>
						</g>
						<g>
							<path style="fill:#FFC435;" d="M125.675,194.937c0,0-1.853-6.138-6.014-5.827c-4.161,0.311-5.732,1.683-6.912,4.561
								c-1.18,2.877,1.027,8.152,5.358,8.247C122.438,202.013,125.203,196.088,125.675,194.937z"/>
							<g style="opacity:0.48;">
								<path style="fill:#FFFFFF;" d="M119.489,190.905c-3.025-0.185-5.476,1.527-6.009,4.563
									c-0.201,1.142,1.563,1.516,1.765,0.367c0.404-2.294,2.093-3.267,4.337-3.13
									C120.742,192.776,120.637,190.975,119.489,190.905L119.489,190.905z"/>
							</g>
						</g>
						<g>
							<path style="fill:#FFC435;" d="M257.792,87.973c0,0-1.853-6.138-6.014-5.827c-4.161,0.311-5.732,1.683-6.912,4.561
								c-1.18,2.878,1.027,8.152,5.358,8.247C254.555,95.049,257.32,89.124,257.792,87.973z"/>
							<g style="opacity:0.48;">
								<path style="fill:#FFFFFF;" d="M251.605,83.941c-3.025-0.185-5.476,1.527-6.009,4.563c-0.201,1.142,1.563,1.516,1.765,0.367
									c0.404-2.294,2.093-3.267,4.337-3.13C252.858,85.812,252.753,84.011,251.605,83.941L251.605,83.941z"/>
							</g>
						</g>
						<g>
							<path style="fill:#FFC435;" d="M337.262,151.337c0,0,3.82-5.15,1.087-8.303c-2.732-3.154-4.771-3.595-7.785-2.825
								c-3.013,0.77-5.929,5.689-3.421,9.221C329.652,152.962,336.056,151.645,337.262,151.337z"/>
							<g style="opacity:0.48;">
								<path style="fill:#FFFFFF;" d="M336.806,143.967c-1.657-2.538-4.493-3.483-7.248-2.099c-1.036,0.52-0.284,2.159,0.759,1.635
									c2.082-1.044,3.87-0.27,5.1,1.613C336.052,146.089,337.434,144.93,336.806,143.967L336.806,143.967z"/>
							</g>
						</g>
						<g>
							<path style="fill:#FE7204;" d="M171.118,145.615c0,0,9.385-12.043,22.355-11.587c12.97,0.456,23.483,6.515,29.62,19.621
								c6.137,13.107,4.943,30.219-8.425,46.941l-15.134-50.06l-27.304-3.824L171.118,145.615z"/>
							<path style="fill:#F44D00;" d="M172.23,146.706l42.438,53.884c0,0,18.317-18.52,6.247-42.315
								C208.845,134.479,181.948,135.491,172.23,146.706z"/>
							<path style="fill:#A74100;" d="M183.291,160.75l21.541,27.35c1.359-6.251,4.223-23.777-5-28.941
								C190.727,154.061,185.121,158.744,183.291,160.75z"/>
							<path style="opacity:0.35;fill:#FECBC1;" d="M177.824,144.36c0,0-3.789,2.293-0.77,4.54s9.931-3.994,17.119-3.809
								c7.189,0.185,15.446,4.46,15.446,4.46S196.707,136.092,177.824,144.36z"/>
						</g>
						<g>
							<path style="fill:#FE7204;" d="M318.618,146.4c0,0-1.425,3.703-5.793,4.921c-4.368,1.217-27.882-52.148-27.882-52.148
								s5.562,0.677,11.435,8.57C302.251,115.635,318.618,146.4,318.618,146.4z"/>
							<path style="fill:#F44D00;" d="M283.597,104.68l9.061,51.514c0,0,19.299-2.473,20.168-4.873
								c0.87-2.401-24.378-48.268-25.162-49.68C286.88,100.229,282.369,94.919,283.597,104.68z"/>
						</g>
						<path style="opacity:0.09;fill:#FFFFFF;" d="M276.381,104.545c0,0,11.303,0.072,26.763,8.116
							c48.658,25.317,23.741,142.443,11.984,161.841c-11.757,19.398,2.223,24.777,23.641-9.101
							c21.418-33.878,23.761-93.906-2.622-124.043C309.764,111.221,283.22,83.05,276.381,104.545z"/>
						<path style="fill:#DD7433;" d="M311.518,197.309c0,0,4.671-29.587,13.645-35.642c8.974-6.054,22.697-0.979,22.697-0.979
							s6.237,6.728,7.661,17.021c1.424,10.294-14.886,23.101-21.659,29.9C327.089,214.409,311.518,197.309,311.518,197.309z"/>
						<path style="fill:#DD7433;" d="M203.766,291.661c0,0,27.58-11.686,37.465-7.272c9.885,4.414,12.836,18.744,12.836,18.744
							s-2.41,8.852-10.393,15.505s-27.479-0.414-36.832-2.565C197.49,313.92,203.766,291.661,203.766,291.661z"/>
						<path style="fill:#C6B433;" d="M314.399,161.922c0,0-1.835-5.238,5.924-10.261
							C320.324,151.661,325.392,158.859,314.399,161.922z"/>
						<path style="fill:#C6B433;" d="M137.144,276.407c0,0-1.835-5.238,5.924-10.261
							C143.069,266.146,148.137,273.344,137.144,276.407z"/>
						<path style="fill:#C6B433;" d="M266.895,235.469c0,0-1.835-5.238,5.924-10.261
							C272.819,225.208,277.887,232.406,266.895,235.469z"/>
						<path style="fill:#C6B433;" d="M231.306,139.041c0,0-3.873,5.904,7.315,7.381
							C238.621,146.422,239.974,143.705,231.306,139.041z"/>
						<path style="fill:#C6B433;" d="M191.821,250.203c0,0-3.873,5.904,7.315,7.381
							C199.136,257.584,200.488,254.867,191.821,250.203z"/>
						<path style="fill:#C6B433;" d="M269.147,204.567c0,0,3.585,3.433,6.038-4.111C275.185,200.455,273.48,199.173,269.147,204.567
							z"/>
						<path style="fill:#C6B433;" d="M127.615,261.495c0,0-3.873,5.904,7.315,7.381C134.93,268.876,136.283,266.159,127.615,261.495
							z"/>
						<path style="fill:#C6B433;" d="M316.09,129.927c0,0-1.981,6.778,9.151,4.924C325.241,134.851,325.741,131.857,316.09,129.927z
							"/>
						<path style="fill:#C6B433;" d="M274.079,187.805c0,0-3.873,5.904,7.315,7.381
							C281.394,195.186,282.746,192.469,274.079,187.805z"/>
						<path style="fill:#C6B433;" d="M184.177,311.618c0,0-3.873,5.904,7.315,7.381
							C191.492,318.999,192.844,316.282,184.177,311.618z"/>
						<path style="fill:#C4681E;" d="M128.378,179.221c0.105-1.295,1.234-15.157,7.503-21.244c6.269-6.087,8.969-3.806,8.969-3.806
							s4.33-2.534,7.398-4.758c3.068-2.224,3.268-4.682,7.507-1.038c4.239,3.644,6.464,6.712,10.56,7.045
							c4.096,0.333,6.554,0.534,8.236,5.206s6.807,7.564,10.093,12.78s1.381,8.36,3.162,11.803c1.781,3.444,3.42,3.577,1.005,7.917
							c-2.415,4.339-10.565,8.212-10.865,11.898s3.872,8.15-2.139,6.011s-35.924-9.523-35.924-9.523
							S127.377,191.511,128.378,179.221z"/>
						<path style="fill:#DD7433;" d="M122.365,180.145c0.105-1.295,1.234-15.157,7.503-21.244c6.269-6.087,8.969-3.806,8.969-3.806
							s4.33-2.534,7.397-4.758c3.068-2.224,3.268-4.682,7.507-1.038c4.239,3.644,6.464,6.712,10.56,7.045
							c4.096,0.334,6.554,0.534,8.236,5.206c1.681,4.673,6.807,7.564,10.093,12.78c3.286,5.216,1.381,8.36,3.162,11.803
							c1.781,3.444,3.42,3.577,1.005,7.917c-2.415,4.339-10.565,8.211-10.865,11.898c-0.3,3.687,3.872,8.15-2.139,6.011
							c-6.011-2.139-35.924-9.523-35.924-9.523S121.365,192.435,122.365,180.145z"/>
						<path style="fill:#C6B433;" d="M147.357,133.619c0,0-2.181-14.879,7.251-26.55c9.432-11.672,18.55-16.018,23.266-21.854
							c4.716-5.836,3.73-7.612,5.346-6.633c1.617,0.98,0.065,9.618,0.685,15.888c0.62,6.27,1.672,17.664-7.904,27.628
							c-9.576,9.964-22.07,10.642-25.107,13.222c-3.037,2.58-2.263,3.491-3.638,6.489
							C145.881,144.807,145.146,139.941,147.357,133.619z"/>
						<path style="fill:#DECC33;" d="M181.548,85.232c0,0-4.422,12.645-12.714,20.734c-8.292,8.089-16.257,15.639-19.677,26.387
							c0,0,1.009,1.496,2.756-2.603c1.747-4.098,3.054-6.254,8.178-6.685c5.124-0.431,12.374-2.668,15.411-5.248
							c3.037-2.58-8.086,5.561-18.713,4.131c0,0,4.527-6.982,10.95-12.961c6.424-5.979,2.315-0.66,14.471-7.586
							c0,0-5.24,2.719-10.258,3.158c0,0,7.37-9.79,9.941-19.228"/>
						<g>
							<g>
								<path style="fill:#E09E2C;" d="M200.066,294.455c0,0-12.407,8.468-14.622,7.926c-2.215-0.543-1.885-0.931-4.481,0.077
									c-2.595,1.008-5.575,2.627-6.787,3.739c-1.212,1.112-4.521,3.12-2.166-1.705c2.356-4.824,17.955-16.738,24.244-20.364
									c6.289-3.626,17.887-7.831,17.887-7.831s-5.118,5.557-5.326,8.324C208.607,287.388,200.066,294.455,200.066,294.455z"/>
								<path style="fill:#E0AC2C;" d="M168.434,308.547c0,0-1.388-1.045-4.128-7.117c-2.74-6.072-6.131-9.486-8.305-13.072
									s-11.244-14.496-11.525-15.269c-0.28-0.773-2.889-2.586,2.252-3.441c5.141-0.854,25.572,37.497,25.572,37.497
									s0.005,0.94-1.818,1.668C168.66,309.542,168.434,308.547,168.434,308.547z"/>
								<path style="fill:#FCD033;" d="M214.142,276.297c0,0-12.678,9.576-23.385,14.938c-10.707,5.362-19.506,16.358-19.506,16.358
									s-2.812-9.613-9.033-14.894c-6.221-5.281-9.024-13.013-11.8-15.102c-2.776-2.089-6.23-7.162-6.23-7.162
									s8.383-5.462,14.351-6.818c5.968-1.356,24.551-2.441,27.761-2.124c3.21,0.317,10.273-3.59,14.053,0.154
									c3.78,3.744,6.881,4.503,8.722,7.537C210.914,272.219,214.142,276.297,214.142,276.297z"/>
							</g>
							<path style="opacity:0.19;fill:#FEFFFF;" d="M160.938,269.944c0,0-7.888,6.529-6.294,8.081
								c1.594,1.552,7.516-2.619,8.016,2.908c0.501,5.527-3.891,7.863,2.946,8.455c6.837,0.592,7.121,1.051,7.95,4.852
								c0.829,3.801-1.355,3.757,7.778-2.4c9.133-6.158,18.265-6.985,12.039-8.844c-6.225-1.859-9.067,4.213-13.588,2.442
								c-4.521-1.771-2.883-2.404,0.003-7.995c2.885-5.591-2.685-5.571-6.727-4.721c-4.042,0.851-5.941-1.4-3.275-4.064
								C172.451,265.993,162.708,268.088,160.938,269.944z"/>
						</g>
						<path style="opacity:0.2;fill:#FFFFFF;" d="M199.767,104.526c0,0-3.762-9.353-10.111-0.823
							c-6.349,8.53-5.448,14.823-13.322,21.25c-7.874,6.427-16.528,8.549-15.914,11.426c0.614,2.877,7.671,9.954,10.982,4.004
							c3.312-5.95,10.095-19.816,18.135-24.816C197.579,110.568,204.13,109.97,199.767,104.526z"/>
						<g>
							<defs>
								<path id="SVGID_1_" d="M290.061,305.873l-19.592-71.331l-31.885,17.19c0,0-6.053,37.181-4.804,39.844
									c1.249,2.664,39.162,31.507,39.162,31.507L290.061,305.873z"/>
							</defs>
							<clipPath id="SVGID_00000092439555127774659480000017561277509321464448_">
								<use xlink:href="#SVGID_1_"  style="overflow:visible;"/>
							</clipPath>
							<g style="clip-path:url(#SVGID_00000092439555127774659480000017561277509321464448_);">
								<path style="fill:#C4270B;" d="M248.576,295.66c15.867,24.082,38.122,9.239,40.225,7.756
									c2.559,0.27,29.226,2.381,31.341-26.381c2.188-29.76-30.242-47.554-48.355-38.998
									C251.8,239.397,232.158,270.742,248.576,295.66z"/>
								<path style="fill:#E55039;" d="M249.818,294.447c15.168,22.817,36.594,8.654,38.619,7.239
									c2.458,0.248,28.07,2.17,30.191-25.147c2.194-28.265-28.905-45.06-46.333-36.88
									C253.09,241.012,234.123,270.837,249.818,294.447z"/>
								<g>
									<path style="fill:#DF270B;" d="M282.49,254.774c0,0,8.97,1.645,9.909,15.896c0.939,14.251,5.733,23.804,16.284,18.216
										c10.551-5.588,7.101-27.713-4.008-38.464c-11.109-10.752-24.091-10.349-25.923-2.917
										C277.404,252.971,282.49,254.774,282.49,254.774z"/>
									<g>
										<g>
											<path style="fill:#FB845F;" d="M297.087,266.509c0,0,1.847,7.983,6.018,8.045c4.171,0.062,6.347-7.103-0.857-15.269
												c-7.204-8.167-13.64-8.5-14.492-5.122C286.904,257.539,294.163,258.376,297.087,266.509z"/>
											<g>
												<path style="fill:#FBAA89;" d="M299.12,273.654c0,0-2.366-1.106-2.852,1.46
													C295.781,277.679,299.381,277.316,299.12,273.654z"/>
												<path style="fill:#FBAA89;" d="M302.446,275.808c0,0-2.386,0.402-1.727,3.059
													C301.377,281.525,304.166,279.028,302.446,275.808z"/>
												<path style="fill:#FBAA89;" d="M307.869,267.348c0,0,1.644,2.406,3.223,0.699
													C312.671,266.339,309.262,264.291,307.869,267.348z"/>
												<path style="fill:#FBAA89;" d="M306.033,262.575c0,0,2.276,1.406,3.004-1.047
													C309.763,259.074,306.11,258.944,306.033,262.575z"/>
												<path style="fill:#FBAA89;" d="M303.204,258.66c0,0,2.458,0.297,2.318-2.408
													C305.382,253.548,302.115,255.122,303.204,258.66z"/>
												<path style="fill:#FBAA89;" d="M299.204,254.824c0,0,2.458,0.297,2.318-2.408
													C301.382,249.712,298.115,251.285,299.204,254.824z"/>
												<path style="fill:#FBAA89;" d="M295.287,252.156c0,0,2.331-0.637,1.502-3.245
													C295.96,246.304,293.371,249.087,295.287,252.156z"/>
												<path style="fill:#FBAA89;" d="M291.087,250.751c0,0,2.069-1.328,0.756-3.678
													C290.529,244.724,288.654,248.266,291.087,250.751z"/>
												<path style="fill:#FBAA89;" d="M287.117,252.307c0,0,0.919-2.621-1.204-3.757
													C283.791,247.414,284.086,251.839,287.117,252.307z"/>
												<path style="fill:#FBAA89;" d="M305.534,275.356c0,0-0.961,2.594,1.147,3.776
													C308.79,280.315,308.564,275.892,305.534,275.356z"/>
												<path style="fill:#FBAA89;" d="M307.673,272.466c0,0,0.481,2.957,2.65,2.561
													C312.493,274.632,310.245,270.867,307.673,272.466z"/>
											</g>
										</g>
									</g>
									<path style="fill:#DF270B;" d="M270.761,257.826c0,0-7.03,5.809-0.902,18.71c6.128,12.901,6.598,23.579-5.338,23.843
										c-11.936,0.264-19.71-20.735-15.251-35.538c4.458-14.803,15.989-20.78,21.212-15.184
										C274.323,253.773,270.761,257.826,270.761,257.826z"/>
									<g>
										<g>
											<g>
												<path style="fill:#E55039;" d="M263.736,275.188c0,0,2.279,7.87-1.333,9.958c-3.612,2.088-9.004-3.108-6.695-13.75
													c2.309-10.642,7.766-14.071,10.157-11.537C268.255,262.393,262.325,266.662,263.736,275.188z"/>
											</g>
											<g>
												<g>
													<path style="fill:#E57639;" d="M265.445,282.418c0,0,1.527-2.118,3.202-0.116
														C270.322,284.305,267.002,285.742,265.445,282.418z"/>
												</g>
												<g>
													<path style="fill:#E57639;" d="M263.591,285.92c0,0,2.28-0.812,3,1.829C267.311,290.391,263.659,289.57,263.591,285.92
														z"/>
												</g>
												<g>
													<path style="fill:#E57639;" d="M254.731,281.177c0,0-0.262,2.902-2.474,2.181
														C250.046,282.637,252.026,279.186,254.731,281.177z"/>
												</g>
												<g>
													<path style="fill:#E57639;" d="M254.008,276.114c0,0-1.303,2.337-3.133,0.55
														C249.044,274.876,252.171,272.982,254.008,276.114z"/>
												</g>
												<g>
													<path style="fill:#E57639;" d="M254.57,271.317c0,0-2.001,1.457-3.198-0.972
														C250.176,267.915,253.796,267.697,254.57,271.317z"/>
												</g>
												<g>
													<path style="fill:#E57639;" d="M256.192,266.018c0,0-2.001,1.458-3.198-0.972
														C251.798,262.616,255.418,262.397,256.192,266.018z"/>
												</g>
												<g>
													<path style="fill:#E57639;" d="M258.312,261.778c0,0-2.346,0.58-2.893-2.1
														C254.871,256.997,258.488,258.165,258.312,261.778z"/>
												</g>
												<g>
													<path style="fill:#E57639;" d="M261.294,258.505c0,0-2.454-0.151-2.453-2.843
														C258.843,252.97,262.206,255.149,261.294,258.505z"/>
												</g>
												<g>
													<path style="fill:#E57639;" d="M265.519,257.928c0,0-2.08-1.84-0.781-3.867
														C266.037,252.034,267.937,256.042,265.519,257.928z"/>
												</g>
												<g>
													<path style="fill:#E57639;" d="M260.674,287.031c0,0,2.104,1.797,0.839,3.857
														C260.249,292.948,258.291,288.976,260.674,287.031z"/>
												</g>
												<g>
													<path style="fill:#E57639;" d="M257.398,285.55c0,0,1.022,2.816-1.065,3.528
														C254.245,289.79,254.373,285.408,257.398,285.55z"/>
												</g>
											</g>
										</g>
									</g>
								</g>
								<path style="fill:#E57639;" d="M281.763,305.178c3.57-1.404,6.049-3.056,6.674-3.492c0.69,0.07,3.208,0.271,6.518-0.08
									c-1.5-1.801-3.151-4.355-4.15-7.785c-2.174-7.467-4.883-10.779-7.694-10.047c-2.677,0.697-3.345,4.887-1.593,12.464
									C282.34,299.789,282.167,302.872,281.763,305.178z"/>
							</g>
						</g>
						<g>
							<defs>
								<path id="SVGID_00000170263865073627041350000003444764093182029218_" d="M271.911,107.086l-68.696-27.437l-5.542,35.797
									c0,0,25.989,27.269,28.867,27.881c2.878,0.612,48.758-12.204,48.758-12.204L271.911,107.086z"/>
							</defs>
							<clipPath id="SVGID_00000142145144338692774110000013997974164436887941_">
								<use xlink:href="#SVGID_00000170263865073627041350000003444764093182029218_"  style="overflow:visible;"/>
							</clipPath>
							<g style="clip-path:url(#SVGID_00000142145144338692774110000013997974164436887941_);">
								<path style="fill:#C4270B;" d="M238.726,133.996c28.777,1.886,30.377-24.816,30.464-27.388
									c1.76-1.878,19.54-21.864-2.114-40.911c-22.406-19.708-56.168-4.594-60.28,15.012
									C195.815,97.464,208.95,132.044,238.726,133.996z"/>
								<path style="fill:#E55039;" d="M238.509,132.274c27.347,1.68,28.989-23.952,29.083-26.42
									c1.681-1.81,18.673-21.07-1.825-39.25c-21.21-18.811-53.373-4.154-57.371,14.679
									C197.882,97.411,210.212,130.536,238.509,132.274z"/>
								<g>
									<path style="fill:#DF270B;" d="M226.601,82.277c0,0,6.726-6.159,18.654,1.696c11.929,7.854,22.439,9.798,24.352-1.987
										c1.913-11.785-17.808-22.39-33.086-20.023c-15.278,2.367-22.793,12.96-17.974,18.907
										C222.093,85.244,226.601,82.277,226.601,82.277z"/>
									<g>
										<g>
											<path style="fill:#FB845F;" d="M244.768,77.723c0,0,7.479,3.347,10.047,0.058c2.567-3.288-1.832-9.348-12.691-8.534
												c-10.86,0.814-15.01,5.744-12.832,8.462C231.47,80.428,236.518,75.146,244.768,77.723z"/>
											<g>
												<path style="fill:#FBAA89;" d="M251.692,80.416c0,0-2.309,1.219-0.558,3.155
													C252.885,85.507,254.768,82.418,251.692,80.416z"/>
												<path style="fill:#FBAA89;" d="M255.416,79.065c0,0-1.12,2.145,1.396,3.224
													C259.329,83.368,259.022,79.637,255.416,79.065z"/>
												<path style="fill:#FBAA89;" d="M251.945,69.634c0,0,2.911,0.142,2.503-2.148
													C254.039,65.196,250.348,66.678,251.945,69.634z"/>
												<path style="fill:#FBAA89;" d="M247.031,68.217c0,0,2.495-0.966,0.978-3.027
													C246.492,63.13,244.183,65.964,247.031,68.217z"/>
												<path style="fill:#FBAA89;" d="M242.202,68.109c0,0,1.721-1.781-0.52-3.301
													C239.441,63.287,238.724,66.841,242.202,68.109z"/>
												<path style="fill:#FBAA89;" d="M236.73,68.982c0,0,1.72-1.78-0.52-3.301C233.969,64.16,233.251,67.715,236.73,68.982z"
													/>
												<path style="fill:#FBAA89;" d="M232.238,70.495c0,0,0.899-2.243-1.68-3.156
													C227.979,66.426,228.635,70.17,232.238,70.495z"/>
												<path style="fill:#FBAA89;" d="M228.583,72.996c0,0,0.19-2.451-2.476-2.822
													C223.441,69.802,225.133,73.435,228.583,72.996z"/>
												<path style="fill:#FBAA89;" d="M227.427,77.1c0,0-1.535-2.315-3.722-1.308C221.518,76.798,225.224,79.233,227.427,77.1z
													"/>
												<path style="fill:#FBAA89;" d="M256.92,76.329c0,0,1.488,2.332,3.703,1.365
													C262.839,76.727,259.176,74.238,256.92,76.329z"/>
												<path style="fill:#FBAA89;" d="M255.907,72.88c0,0,2.648,1.402,3.642-0.567
													C260.543,70.344,256.185,69.864,255.907,72.88z"/>
											</g>
										</g>
									</g>
									<path style="fill:#DF270B;" d="M221.954,93.472c0,0,0.387,9.111,14.372,12.013c13.984,2.902,22.781,8.972,15.787,18.648
										c-6.994,9.675-28.429,3.198-37.539-9.293c-9.111-12.49-6.916-25.291,0.698-26.077
										C220.873,88.185,221.954,93.472,221.954,93.472z"/>
									<g>
										<g>
											<path style="fill:#FB6A5F;" d="M231.556,109.552c0,0,7.651,2.934,7.135,7.074c-0.516,4.14-7.913,5.303-15.004-2.962
												c-7.091-8.265-6.531-14.685-3.067-15.062C224.083,98.226,223.906,105.53,231.556,109.552z"/>
											<g>
												<g>
													<path style="fill:#E57639;" d="M238.352,112.554c0,0-0.768-2.496,1.84-2.623
														C242.8,109.805,241.942,113.319,238.352,112.554z"/>
												</g>
												<g>
													<path style="fill:#E57639;" d="M240.025,116.146c0,0,0.728-2.308,3.269-1.287
														C245.835,115.879,242.975,118.295,240.025,116.146z"/>
												</g>
												<g>
													<path style="fill:#E57639;" d="M230.895,120.346c0,0,2.156,1.961,0.246,3.289
														C229.231,124.963,227.675,121.302,230.895,120.346z"/>
												</g>
												<g>
													<path style="fill:#E57639;" d="M226.422,117.867c0,0,1.077,2.449-1.453,2.83
														C222.439,121.077,222.816,117.441,226.422,117.867z"/>
												</g>
												<g>
													<path style="fill:#E57639;" d="M222.937,114.523c0,0-0.046,2.475-2.705,1.963
														C217.572,115.973,219.583,112.955,222.937,114.523z"/>
												</g>
												<g>
													<path style="fill:#E57639;" d="M219.691,110.032c0,0-0.046,2.476-2.705,1.963
														C214.326,111.481,216.337,108.463,219.691,110.032z"/>
												</g>
												<g>
													<path style="fill:#E57639;" d="M217.59,105.782c0,0-0.954,2.221-3.421,1.039
														C211.702,105.639,214.817,103.461,217.59,105.782z"/>
												</g>
												<g>
													<path style="fill:#E57639;" d="M216.781,101.429c0,0-1.602,1.866-3.747,0.239
														C210.889,100.042,214.656,98.675,216.781,101.429z"/>
												</g>
												<g>
													<path style="fill:#E57639;" d="M218.871,97.713c0,0-2.723,0.547-3.555-1.712
														C214.485,93.742,218.827,94.646,218.871,97.713z"/>
												</g>
												<g>
													<path style="fill:#E57639;" d="M239.149,119.142c0,0,2.702-0.593,3.581,1.659
														C243.61,123.053,239.261,122.216,239.149,119.142z"/>
												</g>
												<g>
													<path style="fill:#E57639;" d="M235.991,120.86c0,0,2.862,0.885,2.17,2.979
														C237.469,125.933,234.052,123.186,235.991,120.86z"/>
												</g>
											</g>
										</g>
									</g>
								</g>
								<path style="fill:#E57639;" d="M266.348,113.283c1.036-3.693,1.215-6.667,1.244-7.43c0.472-0.508,2.153-2.394,3.871-5.245
									c-2.341,0.109-5.374-0.116-8.712-1.39c-7.266-2.774-11.541-2.613-12.655,0.069c-1.061,2.555,1.877,5.617,8.976,8.794
									C262.4,109.57,264.753,111.569,266.348,113.283z"/>
							</g>
						</g>
						<path style="opacity:0.19;fill:#FEFFFF;" d="M336.139,162.278c0,0-6.901,1.417-8.814,4.089
							c-1.914,2.671-7.077,7.057-2.303,7.446c4.775,0.389,4.409,4.882,2.214,7.531c-2.195,2.648-5.248,8.902,0.947,5.731
							c6.195-3.171,10.957-9.568,18.814-12.321c7.857-2.753,0.99-8.684-1.796-9.193
							C342.416,165.051,346.525,159.732,336.139,162.278z"/>
						<path style="opacity:0.2;fill:#FFFFFF;" d="M315.113,205.235c0,0-3.605-0.859-4.086,5.039
							c-0.48,5.898,0.852,17.315,1.358,24.989c0.506,7.674-2.855,24.647-8.224,31.56c-5.369,6.913-12.904,19.588-14.742,24.809
							c-1.839,5.222-0.131,5.078,4.51-3.308c4.641-8.386,14.611-19.731,17.779-27.389c3.168-7.658,5.745-18.474,5.083-34.643
							C316.129,210.124,319.166,207.544,315.113,205.235z"/>
						<path style="fill:#C6B433;" d="M192.69,309.484c0,0,0.83-6.718,4.549-7.263C200.96,301.676,196.266,307.231,192.69,309.484z"
							/>
						<path style="fill:#C6B433;" d="M303.816,232.87c0,0,0.83-6.718,4.549-7.263S307.392,230.617,303.816,232.87z"/>
						<path style="fill:#FCD033;" d="M282.885,264.243c0,0,14.407-10.277,19.565-11.129c5.158-0.852,1.249,10.703-0.289,13.971
							c-1.538,3.267-9.318,10.267-10.924,14.377C289.63,285.572,283.997,276.632,282.885,264.243z"/>
						<polygon style="fill:#9CB239;" points="192.781,245.88 196.425,242.785 197.87,245.871 						"/>
						<polygon style="fill:#9CB239;" points="247.322,242.688 250.829,241.277 251.432,244.295 						"/>
						<polygon style="fill:#9CB239;" points="242.472,239.749 239.136,239.053 241.071,241.331 						"/>
						<polygon style="fill:#9CB239;" points="198.21,239.961 199.826,240.941 201.228,239.359 						"/>
						<path style="fill:#FE7204;" d="M281.024,254.55c0,0,0.628,2.702,4.058,2.239c3.43-0.463,8.444-3.447,11.943-4.753
							c3.499-1.305,8.143-4.956,9.931-6.082c1.788-1.127,3.466-4.807,2.84-6.236c-0.626-1.429-29.93,10.815-29.93,10.815
							l0.011,1.167C279.878,251.7,280.871,253.822,281.024,254.55z"/>
						<path style="fill:#F44D00;" d="M276.557,234.326c0,0-0.314,7.325,1.734,13.429c2.048,6.104,1.79,5.8,7.756,5.438
							c5.966-0.362,16.718-7.403,19.944-8.837c3.227-1.434,6.75-6.518-0.695-8.821c-7.446-2.303-25.77-2.947-27.128-3.623
							C276.809,231.236,276.557,234.326,276.557,234.326z"/>
						<g>
							<path style="fill:#9CB239;" d="M157.411,283.429c1.863,2.794,1.107,6.569-1.687,8.432c-2.794,1.863-6.569,1.107-8.432-1.687
								c-1.862-2.794-1.107-6.569,1.687-8.432C151.774,279.879,155.549,280.635,157.411,283.429z"/>
							<path style="opacity:0.1;" d="M155.725,291.86c2.794-1.863,3.549-5.638,1.687-8.432c-1.012-1.518-2.589-2.428-4.266-2.65
								c2.006,1.047,4.852,4.707,1.351,8.208c-3.603,3.603-6.782,1.231-7.587,0.512c0.114,0.23,0.238,0.456,0.384,0.675
								C149.156,292.968,152.931,293.723,155.725,291.86z"/>
							<path style="opacity:0.3;fill:#F4F6DF;" d="M150.547,283.403c0.673,0.431,0.678,1.626,0.01,2.67
								c-0.668,1.044-1.755,1.541-2.429,1.11c-0.673-0.431-0.678-1.627-0.01-2.67C148.786,283.469,149.873,282.972,150.547,283.403z
								"/>
						</g>
						<g>
							<path style="fill:#FFC435;" d="M209.06,199.104c0,0,3.336-5.476,0.328-8.368c-3.008-2.892-5.079-3.147-8.009-2.106
								c-2.931,1.041-5.387,6.204-2.568,9.494C201.629,201.414,207.888,199.52,209.06,199.104z"/>
							<g style="opacity:0.48;">
								<path style="fill:#FFFFFF;" d="M207.936,191.805c-1.881-2.377-4.791-3.06-7.408-1.432c-0.985,0.612-0.086,2.176,0.904,1.559
									c1.978-1.229,3.83-0.621,5.225,1.142C207.378,193.987,208.65,192.707,207.936,191.805L207.936,191.805z"/>
							</g>
						</g>
						<path style="fill:#E09E2C;" d="M275.228,212.448c0,0-1.558,5.245-0.967,8.403c0.591,3.158,7.109,9.908,11.534,11.117
							c4.425,1.208,13.154,1.637,18.082-3.334c4.928-4.97,2.633-18.445,2.633-18.445L275.228,212.448z"/>
						<path style="fill:#FCD033;" d="M293.15,179.84c0,0,14.196,7.941,13.754,34.198c-0.442,26.257-27.276,17.286-30.504-0.363
							c0,0-3.267-1.538,2.724-7.411c5.991-5.873,8.921-15.812,9.969-18.271S290.064,181.285,293.15,179.84z"/>
						<path style="opacity:0.65;fill:#BC531D;" d="M247.755,303.214c-0.839,0.798-1.679,1.597-2.518,2.396
							c0.82-2.638,1.479-5.326,1.975-8.054c0.273-1.502-1.646-2.114-2.665-1.367c-3.363,2.468-6.501,5.197-9.451,8.127
							c0.709-3.179,1.563-6.323,2.588-9.42c0.487-1.471-1.337-2.935-2.572-1.792c-2.377,2.202-4.754,4.404-7.131,6.605
							c-0.043,0.039-0.086,0.082-0.129,0.122c1.787-3.509,3.029-7.289,3.662-11.208c0.218-1.348-1.693-2.339-2.665-1.367
							c-4.484,4.487-9.255,8.671-14.261,12.56c1.257-2.669,3.371-4.988,5.357-7.116c1.387-1.485-0.472-3.866-2.098-2.471
							c-2.669,2.29-5.466,4.419-8.362,6.406c0.689-0.899,1.457-1.742,2.307-2.517c1.541-1.404-0.552-3.879-2.099-2.471
							c-2.772,2.524-4.876,5.652-6.135,9.186c-0.442,1.24,0.961,2.769,2.224,2.017c1.875-1.116,3.7-2.307,5.499-3.538
							c-0.576,1.401-0.956,2.884-1.041,4.473c-0.078,1.467,1.54,2.186,2.665,1.367c4.931-3.589,9.633-7.475,14.094-11.628
							c-1.37,4.128-3.517,7.974-6.328,11.333c-0.981,1.172,0.353,2.678,1.631,2.522c2.956-0.361,5.089-2.71,7.157-4.626
							c1.162-1.076,2.324-2.153,3.487-3.23c-0.857,3.221-1.574,6.479-2.116,9.771c-0.115,0.699,0.432,1.418,1.059,1.654
							c0.723,0.272,1.407-0.053,1.885-0.594c2.85-3.221,5.967-6.197,9.293-8.921c-0.839,3.28-1.944,6.489-3.293,9.6
							c-0.638,1.471,1.415,2.893,2.572,1.792c2.502-2.38,5.004-4.761,7.506-7.142C251.361,304.25,249.27,301.772,247.755,303.214z"
							/>
						<path style="fill:#C86233;" d="M202.011,300.913c0,0,0.869,4.948,4.046,4.994c3.177,0.047,2.038,1.014,6.023,1.551
							c3.985,0.536,5.425,1.078,8.937,2.212c3.512,1.134,10.081,3.789,13.03,4.03c2.949,0.24,4.85,2.939,11.477-0.338
							c6.628-3.277,8.542-10.229,8.542-10.229s0.003,9.441-7.041,15.228c-7.044,5.787-17.929,4.053-25.039,2.838
							c-7.11-1.215-16.383-4.514-18.404-5.739C201.563,314.235,200.421,304.813,202.011,300.913z"/>
						<g>
							<path style="fill:#9CB239;" d="M241.969,320.314c1.863,2.794,1.107,6.569-1.687,8.432c-2.794,1.862-6.569,1.107-8.432-1.687
								c-1.863-2.794-1.107-6.569,1.687-8.432C236.331,316.765,240.106,317.52,241.969,320.314z"/>
							<path style="opacity:0.1;" d="M240.282,328.746c2.794-1.863,3.549-5.638,1.687-8.432c-1.012-1.518-2.589-2.428-4.266-2.65
								c2.006,1.047,4.852,4.707,1.351,8.208c-3.603,3.603-6.782,1.231-7.587,0.512c0.114,0.229,0.238,0.456,0.384,0.675
								C233.713,329.853,237.488,330.608,240.282,328.746z"/>
							<path style="opacity:0.3;fill:#F4F6DF;" d="M235.104,320.288c0.673,0.431,0.678,1.626,0.01,2.67
								c-0.668,1.044-1.755,1.541-2.429,1.11c-0.673-0.431-0.678-1.626-0.01-2.67C233.343,320.354,234.431,319.857,235.104,320.288z
								"/>
						</g>
						<path style="fill:#C6B433;" d="M195.75,323.303c0,0-1.521-4.342,4.911-8.506C200.661,314.798,204.862,320.764,195.75,323.303z
							"/>
						<g>
							<path style="fill:#AC9A33;" d="M266.367,198.015c0,0,0.353,0.877-0.915,1.692c-1.268,0.816-4.116,1.078-5.572,1.596
								c-1.456,0.518-2.695,0.982-3.374,0.644c-0.679-0.338-2.525-1.973-3.331-4.229c-0.806-2.257-1.187-2.782-0.378-4.908
								l7.199,1.858l6.444,1.585L266.367,198.015z"/>
							<path style="fill:#C6B433;" d="M252.797,192.811l8.23-3.853c0,0,4.712,4.624,5.372,6.94c0.66,2.315-9.915,3.716-9.915,3.716
								L252.797,192.811z"/>
						</g>
						<g>
							<path style="fill:#AC9A33;" d="M206.502,130.806c0,0-0.289,0.9-1.785,0.717c-1.496-0.182-3.856-1.8-5.307-2.332
								c-1.451-0.532-2.701-0.966-3.008-1.66c-0.307-0.694-0.683-3.131,0.139-5.382s0.864-2.899,2.844-4.017l4.352,6.029
								l3.945,5.336L206.502,130.806z"/>
							<path style="fill:#C6B433;" d="M199.386,118.132l8.793,2.293c0,0,0.671,6.568-0.3,8.771
								c-0.972,2.203-10.002-3.475-10.002-3.475L199.386,118.132z"/>
						</g>
						<g>
							<path style="fill:#F27E37;" d="M279.1,96.241c0,0,0.649,0.688-0.234,1.91c-0.882,1.222-3.438,2.507-4.604,3.521
								c-1.166,1.014-2.15,1.899-2.906,1.832c-0.756-0.066-3.071-0.914-4.646-2.72c-1.574-1.806-2.121-2.157-2.144-4.43l7.381-0.9
								l6.578-0.878L279.1,96.241z"/>
							<path style="fill:#FFAC43;" d="M264.566,96.353l6.254-6.593c0,0,6.076,2.584,7.536,4.498c1.46,1.915-7.873,7.081-7.873,7.081
								L264.566,96.353z"/>
						</g>
						<path style="opacity:0.19;fill:#FEFFFF;" d="M283.756,204.944c0,0-7.449,8.158-4.125,8.994
							c3.324,0.836,5.709-0.666,6.512,3.357c0.803,4.023-0.967,8.403,3.36,7.341c4.327-1.061,5.323-6.352,9.376-4.043
							c4.053,2.309,4.912-1.296,3.965-7.028s-3.435-9.892-7.361-6.819c-3.926,3.073-5.176-2.4-4.764-7.456
							C291.13,194.236,287.887,199.343,283.756,204.944z"/>
						<path style="fill:#A2401D;" d="M202.359,249.77c0,0-1.718,7.211,3.801,5.398c5.519-1.812,17.684-15.806,21.959-19.698
							c4.275-3.893,9.948-11.064,9.804-12.772c-0.144-1.708-2.047-6.104-7.148-5.954C225.674,216.895,202.359,249.77,202.359,249.77
							z"/>
						<path style="fill:#FE7204;" d="M235.579,220.246c0,0,0.601-3.909-1.812-5.519c-2.413-1.61-27.361,33.96-27.361,33.96
							l-3.106,3.422c0,0,1.688,1.834,6.373-1.884c4.685-3.718,7.954-7.41,10.266-9.766c2.312-2.356,7.449-8.158,10.464-10.457
							C233.417,227.703,238.422,220.053,235.579,220.246z"/>
						<path style="fill:#F44D00;" d="M202.999,241.906c0,0-3.661,6.77-0.52,9.853c3.142,3.083,14.997-14.046,20.434-21.801
							c5.438-7.756,10.434-13.569,10.853-15.231c0.418-1.662-8.909-8.641-12.21-9.758
							C218.255,203.851,206.539,233.148,202.999,241.906z"/>
						<path style="fill:#B7B504;" d="M254.826,261.733c-1.028-0.512-1.387-0.563-1.387-0.563s2.144-0.668,1.194-1.277
							c-0.949-0.609-2.277,0.239-2.277,0.239s0.549-0.678-0.442-0.839c-0.991-0.161-4.832,4.581-5.689,3.165
							c-0.857-1.415,7.81-4.893,6.893-6.037c-0.838-1.045-2-0.283-2.195-0.143c0.341-0.25,3.485-2.608,1.574-3.245
							c-2.019-0.674-4.486,3.659-4.772,2.626c-0.286-1.033,3.929-6.434,2.57-6.734c-1.36-0.3-2.393,1.668-2.393,1.668
							s-0.552-3.573-1.244-3.412c-0.692,0.161-1.167,1.539-1.167,1.539s0.074-0.982-0.705-0.811
							c-0.779,0.17,1.358,5.348-0.066,4.435c-1.424-0.913-1.682-3.366-2.382-3.292c-0.701,0.074-0.531,2.535-0.531,2.535
							l-1.203-0.494c0,0,2.667,6.007,1.607,6.03c-1.06,0.023-0.953-4.859-3.175-4.094c-2.222,0.764,1.391,4.813-0.011,4.96
							s-3.305-1.955-3.167-0.642c0.138,1.314,2,2.181,2,2.181s-1.825-0.517-1.83,0.281c-0.005,0.797,2.549-0.179,2.912,4.122
							c0.223,2.642,0.095,4.482-0.037,5.511c-0.811-1.945-1.725-3.791-2.664-5.495c-0.486-1.774-1.375-5.138-1.543-6.587
							c-0.233-2.014,3.531-8.592,2.683-9.437c-0.849-0.845-2.78,2.139-3.225,1.586c-0.445-0.553,1.663-4.101,1.145-4.553
							c-0.518-0.452-1.802,1.001-1.802,1.001s0.146-2.431-1.402-2.63c-1.548-0.199-0.682,2.428-0.682,2.428s-0.56-0.713-1.604-0.546
							c-1.044,0.167,0.591,2.581,0.591,2.581s-1.036-0.904-1.374-0.226c-0.338,0.678,0.907,5.117-0.136,5.284
							c-1.044,0.167,0.116-8.759-0.535-8.922s-0.539,0.532-0.539,0.532s-0.772-1.482-2.146-1.708
							c-1.374-0.226,0.508,4.289-0.477,4.268c-0.984-0.021-1.13-4.279-2.115-4.3c-0.984-0.021,0.699,1.583-0.17,1.722
							c-0.87,0.139-2.376-2.028-2.988-1.395c-0.612,0.633,1.242,2.745,1.242,2.745s-1.617-0.633-2.303,0.101
							c-0.685,0.734,3.69,2.442,3.193,3.235c-0.498,0.793-3.813-1.531-4.282-0.564c-0.469,0.967,0.894,0.571,1.239,1.051
							c0.344,0.48-0.755,0.299-0.557,0.981c0.198,0.682,7.945,2.832,7.906,4.265c-0.039,1.433-4.658-2.912-5.819-2.369
							c-1.162,0.543,1.28,1.311,0.988,1.715c-0.292,0.404-5.266-0.585-5.245,0.661c0.021,1.245,1.475,0.299,2.122,0.999
							c0.647,0.699-1.757,0.727-1.59,1.77c0.167,1.044,3.252-1.412,4.303-0.421c1.05,0.992-3.18,1.311-3.068,2.007
							c0.111,0.696,2.964,0.685,2.964,0.685s-1.162,0.543-0.473,1.503c0.689,0.96,2.859-1.082,8.053-0.396
							c5.193,0.686,6.313,4.342,6.313,4.342l0.063-0.01c1.228,2.279,2.396,4.795,3.308,7.429c-1.394-0.645-3.464-1.29-6.21-2.63
							c-4.48-2.186-3.981-5.869-5.014-5.584c-1.033,0.286,1.009,3.702-0.927,0.452c-1.935-3.25-2.72-0.6-1.968,0.649
							c0.499,0.83-2.341-2.057-3.18-1.614c-0.839,0.442,2.29,2.416,1.737,3.891c-0.553,1.475-3.188-5.067-3.82-5.178
							c-0.632-0.111-0.277,0.737-0.277,0.737s-1.908-1.305-2.95-1.107c-1.042,0.198,2.212,2.513,1.935,3.25
							c-0.277,0.738-2.954-1.992-3.567-1.928c-0.613,0.064,1.06,1.66,1.06,1.66s-2.005-1.384-2.886-0.494
							c-0.881,0.889,3.097,2.508,2.742,3.343c-0.355,0.834-2.019-0.673-2.66,0.811s6.85,1.14,7.864,2.362
							c1.014,1.222-5.785-0.278-6.168,0.293c-0.383,0.572,0.839,1.24,0.839,1.24s-1.955-0.061-2.098,1.105
							c-0.143,1.166,2.42,0.277,2.42,0.277s-1.199,0.392-1.291,1.198c-0.092,0.807,3.624-0.912,3.882-0.142
							c0.258,0.77-2.572,0.801-1.964,1.535c0.608,0.733,2.678-0.635,2.678-0.635s-0.614,1.747,0.507,1.452
							c1.12-0.295,5.316-4.189,6.284-3.405c0.968,0.784-4.205,3.806-3.869,4.48c0.336,0.673,2.632-1.073,2.25-0.502
							c-0.383,0.572-3.172,1.838-2.536,2.834c0.636,0.996,1.747,0.614,1.747,0.614s-1.088,1.443-0.236,1.973
							c0.853,0.53,2.172-2.088,2.13-1.641c-0.042,0.447-0.102,0.719,0.645,1.084c0.747,0.364,3.191-5.028,4.141-4.42
							c0.95,0.609-2.02,2.692-1.185,3.047c0.834,0.355,2.287-1.834,2.937-1.548c0.65,0.286-1.937,1.797-1.881,2.323
							c0.055,0.526,1.659,0.623,2.466-0.967c0.807-1.59,2.459-6.103,5.999-6.12c0.521-0.003,0.943,0.05,1.289,0.14
							c0.32,1.227,0.574,2.469,0.739,3.715c1.669,12.608-0.143,21.595-0.161,21.685l1.724,0.358
							c0.078-0.376,1.894-9.348,0.183-22.274c-0.214-1.62-0.563-3.226-1.011-4.798c0.324-1.535,1.3-3.705,4.231-3.899
							c4.573-0.303,8.137-0.943,6.842-2.312c-1.295-1.369-5.73-1.435-2.493-2.66c3.236-1.225,5.504,0.131,5.472-1.017
							c-0.032-1.148-1.931-0.683-1.664-1.508C253.268,262.073,255.854,262.245,254.826,261.733z"/>
						<path style="opacity:0.65;fill:#BC531D;" d="M130.139,167.907c0,0,22.148-13.246,24.841-9.348
							c2.692,3.898-22.222,18.257-23.238,22.522c-1.016,4.265,26.027-11.593,32.78-12.381c6.753-0.788,0.8,7.157-8.632,13.88
							s-4.272,13.162,3.416,9.106c7.688-4.056,16.697-12.018,21.213-9.978c4.516,2.04-0.162,1.993-6.521,6.158
							c-6.359,4.164-17.64,11.272-22.434,8.541c-4.794-2.732-8.85-10.419-1.332-16.496c7.518-6.077-0.502-2.048-8.271,3.005
							c-7.769,5.053-17.018,3.631-15.31-0.912c1.708-4.543,21.754-16.623,19.177-17.836c-2.577-1.213-7.661,3.724-13.22,6.281
							C127.048,173.006,130.139,167.907,130.139,167.907z"/>
						<path style="fill:#A2401D;" d="M130.451,201.041c0,0-6.915,2.781-12.127,13.393c-5.212,10.612-7.066,25.176,5.052,36.531
							s23.665,13.298,38.914,10.861c15.248-2.437,28.109-8.413,27.87-17.797C189.92,234.645,130.451,201.041,130.451,201.041z"/>
						<g>
							<path style="fill:#87463C;" d="M156.391,179.626c-9.806-4.029-10.73-13.012-10.73-13.012
								c-4.559-1.734-8.146,3.427-9.081,4.321c-1.637-0.717-7.031,0.273-8.676,3.305c0,0,5.621,8.648,1.791,18.533
								c-3.83,9.886-20.526,31.807-9.953,49.516c10.496,17.581,32.092,23.793,53.979,14.962l0.016,0.037
								c0.077-0.039,0.151-0.081,0.228-0.12c0.082-0.029,0.163-0.054,0.244-0.083l-0.016-0.037
								c23.141-11.256,31.318-30.629,25.795-50.346C194.425,186.843,166.197,183.655,156.391,179.626z"/>
							<path style="fill:#E3BD96;" d="M155.889,182.579c-9.527-4.055-11.704-14.586-11.704-14.586
								c-2.803-0.661-5.775,3.355-6.673,4.226c-1.25,0.051-5.97-0.002-7.42,2.486c0,0,6.357,7.418,2.738,17.119
								c-3.619,9.701-21.266,31.075-10.875,48.608c10.315,17.406,29.386,22.374,50.978,14.884l0.016,0.036
								c0.074-0.038,0.146-0.078,0.22-0.116c0.079-0.028,0.157-0.052,0.236-0.08l-0.016-0.036
								c20.298-10.502,29.826-27.753,24.305-47.218C192.132,188.296,165.416,186.634,155.889,182.579z"/>
							<g>
								<g>
									<path style="fill:#87463C;" d="M174.628,256.49l-2.059,1.074l-0.267-0.182c-0.301-0.205-7.856-6.091-14.595-16.342
										c-6.21-9.447-13.162-25.354-11.013-47.481l0.114-1.173l1.019,0.591c0.294,0.171,7.294,4.299,14.165,14.102
										c6.321,9.017,14.072,25.683,13.17,49.351L174.628,256.49z M172.491,255l0.774-0.163
										c0.744-22.919-6.377-38.135-12.512-46.888c-5.168-7.373-10.487-11.489-12.664-12.994
										c-1.732,21.038,4.924,36.189,10.883,45.255C164.842,249.138,171.154,254.02,172.491,255z"/>
								</g>
							</g>
							<g>
								<g>
									<path style="fill:#87463C;" d="M176.473,254.393l-3.904,3.171c-0.313,0.052-6.902,0.751-15.899-1.225
										c-8.343-1.832-19.558-6.878-25.607-20.511c-10.698-24.113-1.079-40.447-0.709-41.078l0.256,2.018l-0.653-0.383l0.795-0.708
										c-0.087,0.148-8.668,16.179,1.695,39.536c8.477,19.106,27.611,20.921,36.3,20.692c-7.079-2.333-20.724-9.02-27.065-26.9
										c-8.636-24.35-4.959-56.554-4.921-56.877l1.503,0.178c-0.038,0.319-3.672,32.18,4.845,56.193
										c8.426,23.757,30.498,27.971,30.716,28.001L176.473,254.393z"/>
								</g>
							</g>
							<g>
								<g>
									<path style="fill:#87463C;" d="M170.306,258.163l4.581-1.595c0.254-0.191,5.297-4.488,10.059-12.373
										c4.416-7.312,8.478-18.919,2.756-32.693c-10.121-24.36-23.604-27.478-24.316-27.644l-4.388-0.492l0.86,0.176l1.916,0.825
										c0.167,0.039,14.725,4.118,24.529,27.715c8.019,19.302-3.838,34.428-9.987,40.573c3.182-6.74,7.728-21.24-0.873-38.149
										c-11.712-23.028-37.599-42.535-37.86-42.73l-0.906,1.213c0.257,0.192,25.866,19.494,37.416,42.204
										c11.428,22.468-0.714,41.376-0.842,41.555L170.306,258.163z"/>
								</g>
							</g>
						</g>
						<path style="fill:#A2401D;" d="M237.501,159.592c0,0-7.313-2.602-5.969,5.534c1.344,8.136,15.593,11.804,20.913,14.244
							c5.32,2.44,10.06,5.836,14.921,7.736c4.862,1.901,10.912-4.63,13.676-13.936c2.764-9.306-0.219-28.111-0.219-28.111
							l-40.871,15.233L237.501,159.592z"/>
						<g>
							<g>
								<path style="fill:#DEB433;" d="M270.743,185.304c0,0,3.425-1.178,6.641-12.567c3.216-11.389,4.908-27.063,4.908-27.063
									L270.743,185.304z"/>
								<path style="fill:#E09E2C;" d="M272.322,173.573l0.87,4.648c0,0-0.476,3.29-1.058,5.323
									c-0.582,2.033-1.615,1.949-3.631,1.161c-2.016-0.788-17.274-10.145-21.358-11.101c-4.083-0.957-13.465-8.378-13.381-9.412
									c0.084-1.033-0.486-9.441-0.486-9.441S273.752,173.898,272.322,173.573z"/>
								<path style="fill:#FCD033;" d="M233.952,154.221c0,0-1.944,0.882,1.211,3.011c3.155,2.129,29.668,16.355,33.22,18.725
									c3.552,2.37,5.138,3.331,6.285-0.529c1.146-3.86,4.764-12.511,5.48-16.198c0.716-3.687,4.379-15.455,0.029-20.803
									c-4.35-5.348-13.136-7.311-16.957-6.374c-3.821,0.937-13.305,12.648-17.244,15.032
									C242.037,149.47,233.952,154.221,233.952,154.221z"/>
							</g>
							<g style="opacity:0.35;">
								<g>
									<path style="fill:#FEFFFF;" d="M266.71,138.248c-3.545,0.663-6.895,2.138-9.769,4.318c-1.051,0.797-1.078,2.57,0.387,2.962
										c4.334,1.161,8.37-1.301,12.684-0.837c-0.144-1.061-0.287-2.122-0.431-3.184c-6.261,1.682-12.353,3.897-18.25,6.587
										c-1.051,0.48-1.07,2.326,0,2.799c3.21,1.419,6.58,1.309,9.96,0.585c3.466-0.742,6.807-2.074,10.4-2.004
										c-0.382-0.922-0.764-1.845-1.146-2.767c-3.224,2.53-7.588,2.993-11.409,4.096c-3.457,0.998-9.471,3.22-8.212,7.907
										c0.198,0.737,0.847,1.127,1.563,1.19c1.908,0.167,3.816,0.157,5.719-0.07c0.902-0.108,1.794-0.26,2.688-0.422
										c0.785-0.143,1.944-0.424,2.668,0.051c0.438,0.287,0.576,0.51,0.306,0.883c-0.46,0.638-1.305,0.906-1.752,1.622
										c-0.826,1.324-0.69,3.167,0.8,3.96c1.437,0.764,3.335-0.043,4.729-0.543c1.693-0.608,3.339-1.367,4.884-2.287
										c1.483-0.883,2.887-1.918,4.181-3.059c1.188-1.047,2.547-2.337,2.56-4.044c0.016-2.057-1.777-3.009-3.454-3.648
										c-2.036-0.775-4.203-1.142-6.376-1.208c0.273,1.007,0.545,2.014,0.818,3.02c1.703-1.088,3.526-2.091,5.122-3.333
										c1.404-1.092,2.114-2.625,1.701-4.409c-0.732-3.157-3.89-5.506-6.912-6.194c0.238,0.903,0.477,1.806,0.715,2.709
										c1.837-1.842,0.968-4.943-1.301-5.98c-2.972-1.359-5.553,0.871-8.379,1.408c-1.584,0.301-1.506,2.772,0,3.126
										c3.779,0.888,7.225,2.662,10.099,5.279c0.238-0.903,0.477-1.806,0.715-2.709c-4.376,1.08-8.565,2.804-12.438,5.109
										c0.739,0.739,1.478,1.478,2.218,2.218c0.544-0.796,2.398-0.835,3.25-1.243c1.101-0.526,2.061-1.462,2.243-2.711
										c0.181-1.24-0.689-2.266-1.994-1.994c-2.297,0.479-4.483,1.301-6.545,2.42c-1.706,0.925-0.471,3.274,1.249,2.962
										c3.495-0.634,7.019-0.972,10.569-1.044c-0.467-0.813-0.933-1.626-1.4-2.439c-0.339,0.77-1.982,1.126-2.717,1.44
										c-1.289,0.552-2.578,1.105-3.867,1.657c-2.502,1.072-5.004,2.144-7.506,3.216c-1.067,0.457-1.056,2.338,0,2.799
										c5.1,2.228,10.228-1.209,14.695-3.453c-0.655-0.849-1.309-1.697-1.964-2.546c-1.093,1.399-2.187,2.798-3.28,4.197
										c-0.948,1.214-0.12,3.139,1.577,2.709c1.1-0.279,2.201-0.557,3.301-0.836c-0.526-0.903-1.051-1.806-1.577-2.709
										c-0.759,0.927-1.518,1.854-2.276,2.781c-0.79,0.966-0.394,2.904,1.146,2.767c2.346-0.208,4.526-0.809,6.641-1.848
										c-0.655-0.849-1.309-1.697-1.964-2.546c-1.653,1.343-3.306,2.686-4.959,4.029c-1.224,0.994,0.097,3.31,1.577,2.709
										c2.076-0.843,4.056-1.853,5.886-3.153c1.407-1,4.404-2.726,3.681-4.837c-0.339-0.99-1.343-1.616-2.372-1.626
										c-0.882-0.009-1.701,0.724-2.37-0.122c-1.256-1.587,0.982-3.174,2.21-3.758c-0.545-0.933-1.091-1.866-1.636-2.799
										c-0.58,0.29-1.16,0.58-1.74,0.87c-1.866,0.933-0.226,3.73,1.636,2.799c0.58-0.29,1.16-0.58,1.74-0.87
										c1.876-0.938,0.232-3.687-1.636-2.799c-2.438,1.159-4.62,3.616-4.058,6.494c0.247,1.266,1.034,2.45,2.131,3.139
										c0.548,0.344,1.19,0.57,1.84,0.607c0.353,0.02,0.723-0.018,1.071-0.086c0.138-0.037,0.276-0.074,0.414-0.112
										c0.664-0.082,0.564-0.276-0.298-0.581c0.055-0.416,0.109-0.833,0.163-1.249c-0.258,0.61-1.063,1.102-1.571,1.503
										c-0.602,0.476-1.234,0.916-1.88,1.331c-1.289,0.827-2.653,1.548-4.072,2.124c0.526,0.903,1.051,1.806,1.577,2.709
										c1.653-1.343,3.306-2.686,4.96-4.029c1.507-1.224-0.412-3.307-1.964-2.546c-1.571,0.771-3.26,1.25-5.005,1.405
										c0.382,0.922,0.764,1.845,1.146,2.767c0.759-0.927,1.517-1.854,2.276-2.781c0.988-1.207,0.093-3.132-1.577-2.709
										c-1.1,0.279-2.201,0.557-3.301,0.836c0.526,0.903,1.051,1.806,1.577,2.709c1.093-1.399,2.187-2.798,3.28-4.197
										c1.106-1.415-0.23-3.417-1.964-2.546c-1.926,0.967-3.833,2.038-5.824,2.865c-1.711,0.71-3.799,1.375-5.599,0.589
										c0,0.933,0,1.866,0,2.799c2.805-1.202,5.611-2.404,8.416-3.606c1.365-0.585,2.729-1.169,4.094-1.754
										c1.099-0.471,2.23-0.952,2.742-2.116c0.47-1.068-0.059-2.466-1.399-2.439c-3.838,0.078-7.654,0.475-11.431,1.159
										c0.416,0.988,0.833,1.975,1.249,2.962c1.828-0.991,3.735-1.669,5.77-2.093c-0.665-0.665-1.329-1.329-1.994-1.994
										c-0.135,0.921-1.552,0.964-2.282,1.185c-1.213,0.368-2.164,0.939-2.884,1.994c-0.937,1.371,0.88,3.013,2.217,2.218
										c3.648-2.171,7.541-3.764,11.663-4.782c1.153-0.285,1.612-1.893,0.715-2.709c-3.277-2.985-7.21-5.097-11.529-6.113
										c0,1.042,0,2.084,0,3.126c1.568-0.298,2.909-1.171,4.437-1.575c0.501-0.133,1.322-0.323,1.796,0.005
										c0.228,0.157,0.48,0.538,0.293,0.725c-0.832,0.834-0.491,2.434,0.715,2.709c1.86,0.424,3.864,1.641,4.533,3.536
										c0.417,1.183-0.827,1.67-1.671,2.209c-1.182,0.755-2.365,1.51-3.547,2.266c-1.358,0.867-0.812,2.971,0.818,3.02
										c2.003,0.061,4.063,0.42,5.901,1.249c0.94,0.424,0.671,0.572-0.011,1.27c-0.672,0.688-1.431,1.321-2.196,1.9
										c-1.432,1.083-2.998,2.006-4.628,2.757c-0.753,0.347-1.526,0.645-2.313,0.906c-0.367,0.122-1.324,0.217-1.592,0.471
										c-0.078,0.02-0.156,0.04-0.234,0.061c0.157,0.792,0.36,0.979,0.609,0.562c3.367-1.518,2.699-5.975-0.447-7.205
										c-1.831-0.716-3.766-0.158-5.621,0.14c-2.124,0.34-4.284,0.36-6.423,0.172c0.521,0.397,1.042,0.793,1.563,1.19
										c-0.425-1.581,2.517-2.715,3.602-3.142c1.719-0.675,3.526-1.108,5.314-1.553c3.539-0.88,6.96-1.869,9.872-4.154
										c1.167-0.916,0.133-2.742-1.146-2.767c-3.28-0.063-6.398,0.892-9.539,1.706c-2.941,0.762-6.284,1.438-9.185,0.155
										c0,0.933,0,1.866,0,2.799c5.641-2.574,11.488-4.653,17.476-6.261c1.876-0.504,1.299-2.997-0.431-3.184
										c-3.968-0.427-7.926,1.996-11.822,0.952c0.129,0.988,0.258,1.975,0.387,2.962c2.683-2.035,5.685-3.373,8.995-3.991
										C269.62,140.991,268.753,137.866,266.71,138.248L266.71,138.248z"/>
								</g>
							</g>
						</g>
						<g>
							<path style="fill:#9CB239;" d="M289.292,182.644c-0.921,3.229-4.285,5.1-7.515,4.179c-3.229-0.921-5.1-4.285-4.179-7.514
								c0.921-3.229,4.285-5.1,7.515-4.179C288.341,176.05,290.213,179.415,289.292,182.644z"/>
							<path style="opacity:0.1;" d="M281.777,186.823c3.229,0.921,6.594-0.95,7.515-4.179c0.5-1.754,0.172-3.546-0.746-4.966
								c0.503,2.206-0.441,6.746-5.376,6.348c-5.079-0.41-5.332-4.367-5.307-5.447c-0.101,0.236-0.193,0.477-0.265,0.73
								C276.677,182.538,278.548,185.902,281.777,186.823z"/>
							<path style="opacity:0.3;fill:#F4F6DF;" d="M284.863,177.399c0.108,0.792-0.799,1.57-2.027,1.738
								c-1.228,0.168-2.311-0.339-2.419-1.131c-0.108-0.792,0.799-1.57,2.027-1.738
								C283.671,176.101,284.754,176.607,284.863,177.399z"/>
						</g>
						<g>
							<path style="fill:#9CB239;" d="M292.287,161.607c1.863,2.794,1.107,6.569-1.687,8.432c-2.794,1.863-6.569,1.107-8.431-1.687
								c-1.863-2.794-1.107-6.569,1.687-8.432C286.65,158.058,290.425,158.813,292.287,161.607z"/>
							<path style="opacity:0.1;" d="M290.6,170.038c2.794-1.863,3.549-5.638,1.687-8.432c-1.012-1.518-2.589-2.428-4.266-2.65
								c2.006,1.047,4.852,4.707,1.351,8.208c-3.603,3.603-6.781,1.231-7.587,0.512c0.114,0.23,0.238,0.456,0.384,0.675
								C284.031,171.146,287.806,171.901,290.6,170.038z"/>
							<path style="opacity:0.3;fill:#F4F6DF;" d="M285.422,161.581c0.673,0.431,0.678,1.626,0.01,2.67
								c-0.668,1.044-1.755,1.541-2.429,1.11c-0.673-0.431-0.678-1.627-0.01-2.67C283.662,161.647,284.749,161.15,285.422,161.581z"
								/>
						</g>
						<path style="fill:#A2401D;" d="M293.37,294.906c0,0-10.52,14.193-13.17,17.991c-2.65,3.797-4.358,8.34,2.009,8.19
							c6.367-0.15,2.928-3.106,12.664-7.664c9.735-4.558,23.18-9.483,23.18-9.483l5.579-6.903L293.37,294.906z"/>
						<g>
							<path style="fill:#C6B433;" d="M283.605,310.95c0,0,8.021-15.179,15.768-26.988c7.747-11.809,18.955-24.466,18.767-49.926
								c-0.189-25.46,5.781-36.282,5.781-36.282s4.951-5.251,7.002-9.608c2.051-4.356,15.095-11.776,26.179-15.962
								c11.084-4.186,22.168-8.373,28.014-10.724c5.846-2.351-0.262,10.156-3.482,14.983c-3.22,4.827-3.527,15.545-5.67,21.025
								c-2.142,5.48-0.869,10.673-3.482,14.983s0.979,22.697-7.832,40.639c-8.812,17.942-26.186,36.883-36.891,43.361
								c-10.705,6.479-40.404,17.066-40.404,17.066s-3.839,5.483-5.86,4.258C279.474,316.551,283.605,310.95,283.605,310.95z"/>
							<path style="fill:#DECC33;" d="M286.291,310.956c0,0,20.208-24.223,28.893-34.542c8.686-10.319,9.979-13.182,9.979-13.182
								s16.055-1.873,21.277-6.113c0,0-13.136,5.079-19.876,4.531c0,0,6.3-9.665,7.679-13.581c0,0,16.151,2.163,29.323-11.183
								c0,0-13.28,12.065-28.344,9.566c0,0,4.906-13.383,7.464-16.143c2.557-2.76,2.814-5.92,5.604-6.329
								c2.79-0.409,13.545-2.29,17.172-5.175c0,0-13.084,4.447-17.895,3.632c0,0,3.351-9.905,3.518-14.556
								c0.167-4.651,10.244-21.642,14.834-25.933c4.59-4.291,12.124-10.887,12.124-10.887s-10.745,6.97-14.493,11.33
								c-3.748,4.36-11.779,17.064-13.33,23.087c0,0-5.28-8.063-4.749-14.593c0,0-1.967,8.533,4.594,16.489
								c0,0-2.014,11.71-4.919,16.138c-2.905,4.428-6.231,8.822-8.642,14.987c-2.41,6.165-8.005,17.583-12.066,23.19
								c-4.061,5.606-16.649,22.18-21.256,26.682c-4.607,4.502-16.056,20.108-16.791,21.321S286.291,310.956,286.291,310.956z"/>
						</g>
						<path style="fill:#EE6A25;" d="M219.838,139.165c0,0,0.411-1.973,2.553-0.545c2.141,1.428-1.052,3.677-1.052,3.677
							L219.838,139.165z"/>
						<path style="fill:#EE6A25;" d="M244.48,138.412c0,0,3.005-3.016,4.418-1.898c1.414,1.118-1.052,3.677-1.052,3.677
							L244.48,138.412z"/>
						<path style="fill:#EE6A25;" d="M267.582,212.03c0,0,3.005-3.016,4.419-1.898c1.414,1.118-1.052,3.677-1.052,3.677
							L267.582,212.03z"/>
						<path style="fill:#EE6A25;" d="M229.761,149.755c0,0,0.869-1.434,2.613-1.292c1.744,0.142,1.292,2.613,1.292,2.613
							L229.761,149.755z"/>
						<path style="fill:#EE6A25;" d="M260.856,206.842c0,0,0.869-1.434,2.614-1.292c1.744,0.142,1.292,2.613,1.292,2.613
							L260.856,206.842z"/>
						<path style="fill:#EE6A25;" d="M293.675,176.098c0,0-0.476-1.608,0.803-2.803c1.279-1.195,2.803,0.803,2.803,0.803
							L293.675,176.098z"/>
						<path style="fill:#EE6A25;" d="M208.729,324.876c0,0,0.869-1.434,2.613-1.292c1.744,0.142,1.292,2.613,1.292,2.613
							L208.729,324.876z"/>
						<path style="fill:#EE6A25;" d="M237.025,137.555c0,0,0.91-1.933,1.724,0.391c0.814,2.324,0.814,2.324,0.814,2.324
							L237.025,137.555z"/>
						<path style="fill:#EE6A25;" d="M215.275,327.666c0,0,0.91-1.933,1.724,0.391c0.814,2.324,0.814,2.324,0.814,2.324
							L215.275,327.666z"/>
						<path style="fill:#EE6A25;" d="M224.559,198.243c0,0,0.701-2.451,2.863-1.272c2.161,1.179,1.689,3.9,1.689,3.9
							S225.413,200.068,224.559,198.243z"/>
						<path style="fill:#EE6A25;" d="M305.064,187.073c0,0,0.701-2.451,2.863-1.272c2.161,1.179,1.689,3.9,1.689,3.9
							S305.919,188.898,305.064,187.073z"/>
						<path style="fill:#EE6A25;" d="M213.484,132.722c0,0-1.044-2.326,1.368-2.818s3.805,1.893,3.805,1.893
							S215.315,133.567,213.484,132.722z"/>
						<path style="fill:#EE6A25;" d="M218.146,324.985c0,0-1.044-2.326,1.368-2.818c2.413-0.492,3.805,1.892,3.805,1.892
							S219.977,325.829,218.146,324.985z"/>
						<path style="fill:#EE6A25;" d="M306.244,164.104c0,0-1.044-2.326,1.368-2.818c2.413-0.492,3.805,1.893,3.805,1.893
							S308.074,164.948,306.244,164.104z"/>
						<path style="fill:#EE6A25;" d="M296.197,167.669c0,0,2.171-1.338,2.972,0.991c0.801,2.328-1.382,4.019-1.382,4.019
							S295.597,169.594,296.197,167.669z"/>
						<path style="fill:#EE6A25;" d="M251.394,329.448c0,0-1.044-2.326,1.368-2.818c2.413-0.492,3.805,1.892,3.805,1.892
							S253.224,330.292,251.394,329.448z"/>
						<path style="fill:#EE6A25;" d="M248.37,186.135c0,0,1.846-1.104,3.26,0.015c1.414,1.118-0.472,2.721-0.472,2.721
							S249.164,188.708,248.37,186.135z"/>
						<path style="fill:#EE6A25;" d="M269.795,317.307c0,0,1.846-1.104,3.259,0.015c1.414,1.118-0.472,2.721-0.472,2.721
							S270.589,319.88,269.795,317.307z"/>
						<path style="fill:#EE6A25;" d="M297.421,159.779c0,0,1.846-1.104,3.26,0.015c1.414,1.118-0.472,2.721-0.472,2.721
							S298.215,162.352,297.421,159.779z"/>
						<path style="fill:#EE6A25;" d="M207.856,258.586c0,0,1.846-1.104,3.26,0.015c1.414,1.118-0.472,2.721-0.472,2.721
							S208.65,261.159,207.856,258.586z"/>
					</g>
				</g>
			</g>
		</g>
		<g>
			<path style="opacity:0.1;" d="M473.323,382.353c-5.971-17.116-30.561-24.1-54.924-15.601
				c-18.388,6.415-31.385,19.818-34.088,33.365c-0.491,1.501-2.233,5.477-7.729,9.252c-7.271,4.995-32.516,8.682-32.516,8.682
				l-0.01,0.121c-16.999,2.383-42.564,9.016-70.519,18.768c-47.993,16.743-84.806,36.316-82.223,43.717s43.581-0.172,91.574-16.914
				c30.073-10.491,55.751-22.092,70.103-31.115c8.227-4.432,23.732-10.283,27.829-11.114c5.163-1.047,10.339,1.574,12.186,2.653
				c10.612,8.633,28.874,10.895,47.017,4.566C464.385,420.233,479.294,399.468,473.323,382.353z"/>
			<g>
				<g>
					<g>
						
							<ellipse transform="matrix(0.9442 -0.3294 0.3294 0.9442 -131.7804 115.7897)" style="fill:#EFE9D8;" cx="275.826" cy="446.802" rx="92.035" ry="14.193"/>
						
							<ellipse transform="matrix(0.9442 -0.3294 0.3294 0.9442 -106.028 162.5921)" style="fill:#B7EDDF;" cx="426.824" cy="394.203" rx="46.72" ry="32.822"/>
						
							<ellipse transform="matrix(0.9442 -0.3294 0.3294 0.9442 -105.885 162.8516)" style="fill:#D3F0EE;" cx="427.661" cy="393.911" rx="42.284" ry="30.329"/>
						<path style="fill:#B7EDDF;" d="M382.101,395.948l9.233,25.121c0,0-6.467-4.399-12.901-3.094
							c-4.717,0.957-24.569,8.571-31.007,13.009l-5.747-16.472c0,0,25.245-3.687,32.516-8.682
							C381.143,401.058,382.101,395.948,382.101,395.948z"/>
						<path style="fill:#EFE9D8;" d="M341.679,414.512c0,0,4.301,0.77,6.529,7.157s-0.782,9.316-0.782,9.316l-6.934-1.809
							L341.679,414.512z"/>
						<path style="fill:#ACDED8;" d="M387.737,407.839c0.608,1.744,1.432,3.368,2.427,4.88c-0.144-0.595-0.286-1.198-0.42-1.822
							c-5-23.309,25.349-40.331,48.046-41.815c21.477-1.405,29.144,12.742,31.003,17.158c-0.104-2.119-0.495-4.215-1.207-6.257
							c-5.518-15.816-27.865-22.401-49.915-14.709S382.219,392.024,387.737,407.839z"/>
					</g>
					<path style="opacity:0.55;fill:#FFFFFF;" d="M447.978,391.095c0,0,4.555-6.652,12.196-6.03
						c7.641,0.622,4.288,13.058-0.878,18.991c-5.165,5.934-14.622,11.184-23.863,13.775c-9.241,2.592-14.321-4.845-10.647-8.893
						C428.461,404.889,443.477,397.082,447.978,391.095z"/>
					<path style="opacity:0.55;fill:#FFFFFF;" d="M419.891,417.455c0.238,2.289-2.355,4.435-5.794,4.793
						c-3.438,0.358-6.419-1.207-6.657-3.496s2.355-4.435,5.794-4.793C416.672,413.601,419.653,415.166,419.891,417.455z"/>
				</g>
				<path style="opacity:0.14;" d="M340.667,432.333c-7.333,4-57.333,25.667-102.333,38.333c-45,12.667-49.178,4.227-49.178,4.227
					s-0.014,0.015-0.017,0.019c-0.355,0.82-0.436,1.56-0.211,2.206c2.582,7.401,43.581-0.172,91.574-16.914
					c30.077-10.493,55.761-22.096,70.111-31.12c8.229-4.432,23.725-10.278,27.82-11.109c3.131-0.635,6.264,0.082,8.662,0.985
					C375.713,411.587,347.879,428.399,340.667,432.333z"/>
				<path style="opacity:0.55;fill:#FFFFFF;" d="M225,456.667c0,0-24.667,10.333-21.667,14.333s56-12.667,71.333-18
					c15.333-5.333,63-23.333,65.667-28.333c2.667-5-29.236,1.926-51,8.667C251.667,445,225,456.667,225,456.667z"/>
			</g>
		</g>
	</g>
</g>
</svg>
