<svg width="154" height="196" viewBox="0 0 154 196" fill="none" xmlns="http://www.w3.org/2000/svg">
<path d="M2.80301 185.69C1.53632 186.63 0.390147 187.759 0.478692 189.559C0.66808 193.386 7.24011 194.306 9.92844 194.672C14.6902 195.322 19.4594 195.221 24.2457 195.403C41.6227 196.06 59.0194 196.161 76.4063 195.774C85.3346 195.575 94.258 195.248 103.179 194.8C111.015 194.409 119.742 194.911 127.165 191.883C131.619 190.068 135.896 187.808 140.073 185.383C143.531 183.373 148.015 181.457 150.064 177.701C153.655 171.117 141.066 169.816 137.603 169.093C123.982 166.247 109.935 165.74 96.0805 165.317C81.9821 164.887 67.842 165.152 53.8026 166.636C36.2018 168.495 17.381 174.45 3.00223 185.545C2.93583 185.594 2.86942 185.643 2.80301 185.69Z" fill="#E5E5E5"/>
<path d="M139.96 109.87H39.1069V179.005H139.96V109.87Z" fill="#E5E5E5"/>
<path d="M139.96 109.871H39.1069L52.4551 94.4395C53.0749 93.7237 53.9752 93.3105 54.9221 93.3105H152.433C153.158 93.3105 153.547 94.1616 153.072 94.7101L139.96 109.871Z" fill="white"/>
<path d="M140.009 109.43C136.679 109.43 133.348 109.43 130.018 109.43C121.978 109.43 113.935 109.43 105.894 109.43C96.2011 109.43 86.5079 109.43 76.8146 109.43C68.3979 109.43 59.9812 109.43 51.5645 109.43C48.8024 109.43 46.0402 109.43 43.2781 109.43C42.4173 109.43 41.5539 109.43 40.6931 109.43C40.3241 109.43 39.6846 109.302 39.3329 109.43C39.2862 109.447 39.2075 109.43 39.1558 109.43C39.3059 109.639 39.4534 109.846 39.6035 110.053C42.8846 106.26 46.1632 102.47 49.4443 98.6769C50.6077 97.3315 51.717 95.905 52.9492 94.6235C53.8494 93.6864 54.8234 93.7528 55.9548 93.7528C64.2879 93.7528 72.6235 93.7528 80.9566 93.7528C94.1056 93.7528 107.252 93.7528 120.401 93.7528C130.045 93.7528 139.689 93.7528 149.333 93.7528C150.197 93.7528 151.171 93.6274 152.026 93.7528C153.256 93.9349 152.117 95.0564 151.648 95.6C147.894 99.9387 144.141 104.277 140.39 108.614C140.08 108.97 139.773 109.329 139.463 109.686C138.971 110.254 140.1 110.463 140.459 110.048C143.836 106.144 147.213 102.238 150.59 98.3351C151.37 97.4349 152.147 96.5346 152.927 95.6344C153.315 95.1868 153.908 94.6752 153.874 94.0308C153.81 92.7961 152.558 92.8649 151.667 92.8649C143.243 92.8649 134.822 92.8649 126.398 92.8649C112.865 92.8649 99.3297 92.8649 85.7971 92.8649C76.276 92.8649 66.7574 92.8649 57.2363 92.8649C56.5156 92.8649 55.79 92.8403 55.0718 92.8649C53.2542 92.9289 52.2163 93.9521 51.1242 95.2163C47.2872 99.6534 43.4478 104.088 39.6109 108.525C39.2764 108.911 38.9419 109.297 38.6073 109.686C38.2925 110.05 38.718 110.308 39.055 110.308C42.3853 110.308 45.7156 110.308 49.0458 110.308C57.0862 110.308 65.1291 110.308 73.1695 110.308C82.8628 110.308 92.556 110.308 102.249 110.308C110.666 110.308 119.083 110.308 127.499 110.308C130.262 110.308 133.024 110.308 135.786 110.308C137.084 110.308 138.435 110.417 139.731 110.308C139.79 110.303 139.849 110.308 139.908 110.308C140.592 110.313 140.816 109.43 140.009 109.43Z" fill="#00936C"/>
<path d="M39.2547 109.87L14.4792 119.517V188.649L39.2547 179.361V109.87Z" fill="#F7F7F7"/>
<path d="M39.0454 109.716C31.8166 112.529 24.5904 115.343 17.3616 118.157C16.331 118.558 15.3005 118.959 14.2699 119.36C13.4878 119.665 14.2207 119.859 14.693 119.675C21.9217 116.861 29.148 114.047 36.3767 111.233C37.4073 110.832 38.4379 110.431 39.4684 110.03C40.2506 109.726 39.5176 109.531 39.0454 109.716Z" fill="#00936C"/>
<path d="M39.8499 179.201C39.8499 171.717 39.8499 164.23 39.8499 156.745C39.8499 144.905 39.8499 133.064 39.8499 121.224C39.8499 118.484 39.8499 115.742 39.8499 113.002C39.8499 112.679 38.6619 112.888 38.6619 113.319C38.6619 120.803 38.6619 128.29 38.6619 135.775C38.6619 147.615 38.6619 159.456 38.6619 171.296C38.6619 174.036 38.6619 176.779 38.6619 179.519C38.6619 179.843 39.8499 179.634 39.8499 179.201Z" fill="#00936C"/>
<path d="M39.2543 109.87L14.4789 119.517L2.60395 107.954C1.46516 106.845 1.86607 104.929 3.35413 104.371L23.6605 96.7583C24.4377 96.4681 25.3109 96.6452 25.9135 97.2158L39.2543 109.87Z" fill="#F2F2F2"/>
<path d="M38.6148 110.122L14.4788 119.517L4.3896 109.507C3.25081 108.397 3.65172 106.481 5.13978 105.923C7.48131 105.055 9.82038 104.187 12.1619 103.316C15.5955 102.042 19.7448 99.4273 23.5326 100.236C26.2554 100.819 38.332 109.861 38.6148 110.122Z" fill="white"/>
<path d="M39.0034 109.566C31.7747 112.379 24.5484 115.193 17.3197 118.007C16.2891 118.408 15.2585 118.809 14.228 119.21C14.4936 119.229 14.7592 119.247 15.0273 119.266C11.9922 116.312 8.95951 113.358 5.92438 110.404C5.21848 109.716 4.51011 109.027 3.80421 108.338C3.32951 107.876 2.7884 107.443 2.60885 106.774C2.06528 104.75 4.73147 104.253 6.08425 103.746C10.8977 101.941 15.7111 100.138 20.5245 98.3327C21.6313 97.917 23.7146 96.643 24.9247 97.1915C25.4166 97.4128 25.7979 97.8703 26.184 98.2368C26.8776 98.896 27.5712 99.5527 28.2648 100.212C31.7452 103.515 35.2279 106.818 38.7083 110.122C39.06 110.454 40.184 109.984 39.8028 109.622C36.5266 106.513 33.2504 103.404 29.9743 100.295C28.8133 99.1936 27.6918 98.0007 26.4669 96.9676C24.9518 95.6911 23.3801 96.4634 21.801 97.0562C16.7294 98.9574 11.6577 100.859 6.58355 102.76C5.32424 103.232 3.85832 103.581 2.69001 104.268C1.32248 105.07 0.919106 106.848 1.95459 108.087C2.2768 108.474 2.67771 108.806 3.03681 109.157C6.66963 112.694 10.3024 116.231 13.9328 119.768C14.1468 119.977 14.4764 119.923 14.7322 119.825C21.9609 117.011 29.1872 114.197 36.4159 111.383C37.4465 110.982 38.4771 110.581 39.5076 110.181C40.2701 109.88 39.5888 109.339 39.0034 109.566Z" fill="#00936C"/>
<path d="M115.182 119.517H14.0168V188.651H115.182V119.517Z" fill="#F2F2F2"/>
<path d="M115.185 120.948C111.941 125.787 108.202 132.292 105.878 136.446C104.471 138.963 101.817 140.522 98.9366 140.527L14.0193 140.714V188.646H115.185V120.948Z" fill="white"/>
<path d="M139.96 109.87L115.185 119.517V188.649L139.96 179.361V109.87Z" fill="#E5E5E5"/>
<path d="M139.96 132.789L131.733 136.092C128.904 137.226 125.667 136.323 123.835 133.888L115.185 122.382V188.651L139.96 179.364V132.789Z" fill="#F2F2F2"/>
<path d="M114.589 122.628C114.589 129.8 114.589 136.973 114.589 144.145C114.589 155.565 114.589 166.987 114.589 178.407C114.589 181.014 114.589 183.619 114.589 186.226C114.589 186.482 115.777 186.292 115.777 185.909C115.777 178.736 115.777 171.564 115.777 164.392C115.777 152.972 115.777 141.55 115.777 130.13C115.777 127.523 115.777 124.918 115.777 122.311C115.777 122.055 114.589 122.244 114.589 122.628Z" fill="#00936C"/>
<path d="M13.7735 119.807C18.9657 119.807 24.1578 119.807 29.35 119.807C40.8142 119.807 52.2783 119.807 63.74 119.807C75.2731 119.807 86.8061 119.807 98.3391 119.807C102.242 119.807 106.148 119.807 110.052 119.807C111.643 119.807 113.325 119.965 114.914 119.807C115.802 119.719 116.725 119.195 117.544 118.875C119.942 117.94 122.342 117.008 124.74 116.074C129.576 114.192 134.411 112.308 139.247 110.426C139.557 110.306 139.867 110.185 140.179 110.065C140.959 109.762 140.238 109.487 139.739 109.681C136.027 111.125 132.316 112.571 128.604 114.015C124.182 115.737 119.624 117.271 115.288 119.2C114.7 119.46 115.342 119.214 115.364 119.227C115.261 119.168 114.939 119.227 114.823 119.227C113.95 119.227 113.077 119.227 112.204 119.227C108.743 119.227 105.28 119.227 101.819 119.227C90.6824 119.227 79.5454 119.227 68.4083 119.227C56.6933 119.227 44.9807 119.227 33.2657 119.227C27.0356 119.227 20.771 119.045 14.5433 119.227C14.4498 119.229 14.3564 119.227 14.2604 119.227C13.8743 119.227 12.9815 119.807 13.7735 119.807Z" fill="#00936C"/>
<path d="M139.357 131.402C139.357 136.822 139.357 142.243 139.357 147.664C139.357 156.261 139.357 164.854 139.357 173.451C139.357 175.436 139.357 177.42 139.357 179.405C139.471 179.273 139.584 179.14 139.694 179.007C135.946 180.411 132.2 181.816 128.452 183.223C124.044 184.875 119.523 186.356 115.189 188.193C114.678 188.41 115.317 188.233 115.155 188.211C114.971 188.186 114.769 188.211 114.584 188.211C113.694 188.211 112.804 188.211 111.913 188.211C108.426 188.211 104.938 188.211 101.45 188.211C90.2886 188.211 79.1294 188.211 67.9678 188.211C56.302 188.211 44.6386 188.211 32.9727 188.211C28.8013 188.211 24.6298 188.211 20.4583 188.211C19.1375 188.211 17.8167 188.211 16.4959 188.211C15.8245 188.211 15.0104 188.085 14.3463 188.211C14.2602 188.228 14.1544 188.211 14.0634 188.211C14.2479 188.341 14.4299 188.474 14.6144 188.604C14.6144 182.92 14.6144 177.236 14.6144 171.549C14.6144 162.483 14.6144 153.42 14.6144 144.354C14.6144 142.266 14.6144 140.18 14.6144 138.092C14.6144 137.467 13.4116 137.641 13.4116 138.18C13.4116 143.864 13.4116 149.548 13.4116 155.235C13.4116 164.301 13.4116 173.365 13.4116 182.431C13.4116 184.519 13.4116 186.605 13.4116 188.693C13.4116 189.003 13.6994 189.086 13.9626 189.086C19.1548 189.086 24.347 189.086 29.5392 189.086C40.9197 189.086 52.3027 189.086 63.6832 189.086C75.2359 189.086 86.7886 189.086 98.3413 189.086C102.269 189.086 106.2 189.086 110.128 189.086C111.726 189.086 113.5 189.303 115.089 189.086C115.913 188.973 116.771 188.503 117.541 188.216C119.912 187.328 122.28 186.437 124.652 185.549C129.526 183.722 134.401 181.894 139.276 180.067C139.591 179.949 139.903 179.831 140.218 179.713C140.361 179.659 140.555 179.482 140.555 179.314C140.555 173.893 140.555 168.472 140.555 163.052C140.555 154.455 140.555 145.861 140.555 137.265C140.555 135.28 140.555 133.295 140.555 131.311C140.563 130.688 139.357 130.863 139.357 131.402Z" fill="#00936C"/>
<path d="M115.185 119.517H14.0166L0.678276 134.939C0.29212 135.384 0.609406 136.078 1.19971 136.078H100.545C100.744 136.078 100.936 135.991 101.066 135.839L115.185 119.517Z" fill="#F2F2F2"/>
<path d="M115.185 119.517H15.0156C13.4734 122.496 11.9928 125.514 10.3645 128.445C9.36346 130.248 9.17161 133.188 12.0961 133.188H97.9997C99.6354 133.188 101.21 132.568 102.402 131.451L115.185 119.517Z" fill="white"/>
<path d="M115.401 119.131C110.57 119.131 105.74 119.131 100.909 119.131C90.0672 119.131 79.2229 119.131 68.381 119.131C56.998 119.131 45.615 119.131 34.232 119.131C27.783 119.131 21.3315 119.131 14.8824 119.131C14.393 119.131 13.9207 119.072 13.5124 119.399C13.141 119.694 12.8336 120.184 12.5262 120.54C11.8325 121.342 11.1389 122.146 10.4429 122.948C7.13965 126.768 3.83642 130.585 0.533185 134.405C-0.172717 135.219 -0.34981 136.36 1.08413 136.464C1.63262 136.503 2.19833 136.464 2.74928 136.464C5.64422 136.464 8.54162 136.464 11.4366 136.464C21.6931 136.464 31.9471 136.464 42.2036 136.464C53.8178 136.464 65.4295 136.464 77.0437 136.464C84.3044 136.464 91.5676 136.464 98.8283 136.464C99.3104 136.464 99.8023 136.493 100.284 136.464C101.453 136.39 101.984 135.477 102.687 134.663C106.155 130.654 109.623 126.642 113.091 122.633C113.95 121.64 114.811 120.646 115.669 119.652C116.144 119.104 115.003 119.025 114.695 119.379C111.404 123.184 108.111 126.992 104.82 130.797C103.438 132.395 102.1 134.053 100.661 135.605C100.471 135.809 100.946 135.64 100.555 135.694C100.279 135.733 99.9695 135.694 99.6941 135.694C91.2454 135.694 82.7942 135.694 74.3455 135.694C60.958 135.694 47.5679 135.694 34.1804 135.694C24.3199 135.694 14.4594 135.694 4.59889 135.694C3.71098 135.694 2.71484 135.822 1.83431 135.694C1.73347 135.679 1.50964 135.745 1.41864 135.694C0.648787 135.244 1.81463 134.321 2.07781 134.019C5.88525 129.616 9.6927 125.216 13.4977 120.813C13.8322 120.427 14.1667 120.041 14.5012 119.655C14.2651 119.738 14.0314 119.82 13.7953 119.903C17.1526 119.903 20.5075 119.903 23.8649 119.903C31.9249 119.903 39.9826 119.903 48.0426 119.903C57.7507 119.903 67.4586 119.903 77.1667 119.903C85.6006 119.903 94.0345 119.903 102.468 119.903C106.551 119.903 110.708 120.129 114.786 119.903C114.845 119.901 114.904 119.903 114.963 119.903C115.475 119.901 116.203 119.131 115.401 119.131Z" fill="#00936C"/>
<path d="M139.96 109.87L115.185 119.517L129.015 132.882C129.315 133.173 129.758 133.264 130.149 133.118L152.698 124.665C153.439 124.387 153.643 123.435 153.082 122.879L139.96 109.87Z" fill="#F2F2F2"/>
<path d="M139.153 110.186L115.485 119.635L127.928 132.206C128.198 132.479 128.594 132.565 128.948 132.428C132.06 131.208 135.171 129.988 138.285 128.768C140.169 128.03 142.051 127.292 143.935 126.554C145.779 125.831 148.36 124.958 148.136 122.466C148.032 121.335 147.263 120.42 146.517 119.623C145.674 118.728 139.566 110.614 139.153 110.186Z" fill="white"/>
<path d="M139.692 109.499C132.463 112.313 125.237 115.127 118.008 117.94C116.978 118.341 115.947 118.742 114.917 119.143C114.592 119.269 114.481 119.63 114.73 119.869C118.136 123.16 121.543 126.453 124.949 129.744C126.125 130.878 127.259 132.241 128.56 133.234C129.768 134.157 131.632 133.035 132.854 132.575C138.253 130.551 143.652 128.527 149.051 126.502C150.332 126.023 151.746 125.646 152.971 125.034C155.333 123.851 153.033 122.018 151.985 120.981C148.158 117.188 144.331 113.395 140.506 109.602C140.108 109.206 138.986 109.706 139.421 110.139C142.592 113.282 145.762 116.425 148.933 119.566C149.774 120.4 150.615 121.234 151.456 122.068C151.781 122.39 152.29 122.742 152.531 123.133C153.397 124.532 150.303 125.09 149.454 125.408C144.267 127.353 139.082 129.296 133.895 131.242C132.975 131.586 132.055 131.933 131.135 132.277C130.828 132.393 130.242 132.757 129.905 132.737C129.507 132.715 129.04 132.105 128.781 131.857C128.061 131.161 127.34 130.465 126.619 129.769C122.962 126.234 119.302 122.697 115.645 119.163C115.583 119.404 115.522 119.647 115.458 119.888C122.686 117.075 129.913 114.261 137.141 111.447C138.172 111.046 139.203 110.645 140.233 110.244C140.983 109.949 140.319 109.256 139.692 109.499Z" fill="#00936C"/>
<path d="M107.425 137.694C107.425 141.609 107.425 145.525 107.425 149.441C107.425 150.083 108.63 149.923 108.63 149.362C108.63 145.446 108.63 141.531 108.63 137.617C108.63 136.973 107.425 137.133 107.425 137.694Z" fill="#00936C"/>
<path d="M107.432 151.954C107.432 152.571 107.432 153.189 107.432 153.806C107.432 154.303 108.62 154.055 108.62 153.659C108.62 153.041 108.62 152.424 108.62 151.807C108.62 151.31 107.432 151.558 107.432 151.954Z" fill="#00936C"/>
<path d="M107.427 155.941C107.427 157.55 107.427 159.159 107.427 160.767C107.427 161.37 108.627 161.18 108.627 160.669C108.627 159.06 108.627 157.452 108.627 155.843C108.627 155.238 107.427 155.427 107.427 155.941Z" fill="#00936C"/>
<path d="M120.581 173.83C124.155 172.676 127.731 171.52 131.305 170.366C132.018 170.135 131.819 169.336 131.091 169.572C127.517 170.726 123.941 171.881 120.367 173.035C119.656 173.264 119.855 174.063 120.581 173.83Z" fill="#D1D1D1"/>
<path d="M120.558 169.576C124.118 168.41 127.674 167.247 131.233 166.081C131.929 165.855 131.779 165.218 131.066 165.452C127.507 166.617 123.95 167.781 120.391 168.947C119.695 169.175 119.845 169.81 120.558 169.576Z" fill="#D1D1D1"/>
<path d="M120.549 165.452C124.09 164.276 127.632 163.1 131.174 161.927C131.86 161.701 131.732 161.14 131.027 161.374C127.485 162.549 123.943 163.725 120.401 164.898C119.715 165.127 119.843 165.688 120.549 165.452Z" fill="#D1D1D1"/>
<path d="M120.593 177.049C121.382 176.795 122.172 176.545 122.961 176.291C123.207 176.213 123.52 175.996 123.439 175.694C123.362 175.408 122.971 175.337 122.728 175.416C121.938 175.669 121.149 175.92 120.359 176.173C120.113 176.252 119.801 176.468 119.882 176.771C119.958 177.054 120.349 177.125 120.593 177.049Z" fill="#D1D1D1"/>
<path d="M124.703 175.548C125.5 175.295 126.297 175.039 127.091 174.786C127.246 174.736 127.676 174.596 127.612 174.36C127.551 174.134 127.086 174.208 126.946 174.252C126.149 174.505 125.352 174.761 124.558 175.014C124.403 175.064 123.972 175.204 124.036 175.44C124.098 175.666 124.563 175.592 124.703 175.548Z" fill="#D1D1D1"/>
<path d="M128.914 174.267C129.718 174.011 130.52 173.753 131.324 173.497C131.511 173.438 131.902 173.276 131.831 173.012C131.764 172.762 131.326 172.789 131.149 172.845C130.345 173.101 129.543 173.359 128.739 173.615C128.552 173.674 128.161 173.836 128.232 174.1C128.301 174.353 128.736 174.323 128.914 174.267Z" fill="#D1D1D1"/>
<path d="M51.4297 171.183C54.5927 167.504 59.8144 165.369 64.5664 165.17C68.1746 165.017 71.8123 165.863 74.9926 167.573C76.2174 168.229 77.8703 169.344 78.6697 170.145C79.0632 170.539 80.1848 170.042 79.7543 169.612C77.2333 167.088 73.6054 165.489 70.1742 164.737C64.3917 163.468 58.3411 164.729 53.5105 168.124C52.4086 168.898 51.3092 169.779 50.4262 170.807C49.9367 171.38 51.0632 171.611 51.4297 171.183Z" fill="#00936C"/>
<path d="M55.5 156.133C55.7287 157.142 55.1827 158.17 54.2775 158.426C53.3724 158.681 52.4525 158.071 52.2238 157.063C51.9926 156.055 52.5411 155.026 53.4462 154.771C54.3489 154.512 55.2688 155.122 55.5 156.133Z" fill="#00936C"/>
<path d="M77.2603 159.122C78.1935 159.122 78.95 158.277 78.95 157.235C78.95 156.193 78.1935 155.349 77.2603 155.349C76.3271 155.349 75.5706 156.193 75.5706 157.235C75.5706 158.277 76.3271 159.122 77.2603 159.122Z" fill="#00936C"/>
<path d="M88.0598 112.802C82.6167 113.457 76.7579 114.172 71.5756 111.91C67.2713 110.031 63.6926 106.08 63.9681 101.144C64.2558 96.0133 67.9944 91.9993 72.5201 89.9922C77.5081 87.7811 83.2759 87.54 88.5714 88.6321C91.1023 89.1535 94.1546 89.9012 96.2674 91.4754C98.0334 92.7913 98.7319 95.1402 97.0225 96.7905C95.7681 98.0007 93.9087 98.5467 92.2706 98.9968C90.5587 99.4666 88.8198 99.9044 87.071 100.209C78.1501 101.761 68.0264 100.288 61.0288 94.1563C57.551 91.1089 55.1406 86.63 55.1283 81.9445C55.1135 77.1606 57.8166 72.8022 61.4445 69.8506C68.7077 63.9427 78.8092 62.2604 87.9097 62.2185C92.4083 62.1989 96.902 62.5924 101.344 63.2983C103.715 63.6746 106.18 64.0337 108.366 65.0766C110.575 66.1293 112.816 68.3257 112.228 71.0042C111.672 73.5351 108.752 74.3394 106.583 74.9691C103.789 75.7832 100.884 76.162 97.9817 76.2874C92.5141 76.526 86.9554 76.1177 81.5295 75.4438C76.4062 74.8092 71.2706 73.8622 66.3317 72.3398C62.7481 71.2354 59.1842 69.7793 56.1638 67.519C53.2147 65.3127 50.9642 62.3366 49.9705 58.7653C48.8588 54.7684 49.1662 50.3289 50.6691 46.4722C53.6476 38.8254 61.1494 34.1054 68.5601 31.4343C78.6297 27.8064 89.6978 26.5397 100.35 27.1989C105.816 27.5383 111.229 28.4484 116.522 29.8503C119.223 30.5636 121.889 31.4122 124.481 32.4526C126.643 33.3208 128.842 34.3071 129.947 36.5011C132.072 40.7217 127.863 44.721 124.506 46.6174C120.822 48.6982 116.512 49.9255 112.442 51.0077C107.008 52.4515 101.386 53 95.7878 53.2976C90.4456 53.5805 85.0836 53.7698 79.734 53.6838C69.4308 53.519 58.8619 52.2154 49.5401 47.552C41.4431 43.5035 33.4691 35.2516 35.4934 25.3886C36.4502 20.7351 39.9256 16.7014 43.5018 13.7646C47.2133 10.7172 51.5471 8.55765 56.0482 6.93678C65.3258 3.59419 75.3142 2.43327 85.1058 1.85772C96.0411 1.21577 106.964 1.73228 117.762 3.61387C123.202 4.56081 128.579 5.83488 133.875 7.40164C134.209 7.50002 135.279 6.99089 134.829 6.85561C123.109 3.38513 110.981 1.36335 98.759 0.996867C87.8433 0.669742 76.6202 1.42238 65.9161 3.64093C56.1957 5.65533 46.0278 9.25126 39.2024 16.8047C35.8525 20.5113 33.5798 25.0418 34.1209 30.1356C34.6424 35.045 37.2397 39.5116 40.8135 42.8394C48.7752 50.2551 60.4607 52.9656 70.9828 53.8904C76.635 54.3872 82.3166 54.3946 87.9835 54.215C94.0194 54.0256 100.092 53.819 106.069 52.8893C111.079 52.1096 116.015 50.7175 120.765 48.9466C124.592 47.52 128.65 45.4761 130.761 41.799C131.836 39.9273 132.079 37.8219 130.989 35.8935C129.821 33.825 127.765 32.8461 125.655 31.9877C120.285 29.8036 114.557 28.3549 108.838 27.4473C97.2119 25.6002 85.1894 26.2298 73.8114 29.2453C65.4906 31.4515 56.6705 35.1803 51.6504 42.5541C46.9526 49.4557 46.6747 59.5155 52.6097 65.7874C55.4038 68.7389 59.135 70.6623 62.908 72.0471C67.6083 73.7712 72.5816 74.8166 77.518 75.584C83.5046 76.5161 89.6413 77.0253 95.7017 76.954C98.5155 76.9195 101.334 76.7006 104.096 76.1398C106.497 75.6528 109.156 75.0084 111.256 73.6876C112.914 72.6472 113.873 70.8517 113.391 68.8767C112.825 66.5622 110.695 65.0446 108.595 64.2059C106.305 63.2909 103.791 62.9417 101.366 62.5752C98.9754 62.2136 96.5699 61.948 94.1571 61.7807C84.5327 61.1142 74.3549 61.9824 65.6381 66.4195C61.3978 68.579 57.5215 71.6437 55.3988 75.9972C53.1975 80.5154 53.6452 85.6781 56.1392 89.9799C61.0903 98.5221 72.0036 101.68 81.3131 101.373C84.6311 101.262 103.137 99.3805 98.6262 92.3313C97.2635 90.2038 94.2678 89.365 91.9877 88.6911C89.4396 87.9409 86.8103 87.4982 84.1564 87.3949C79.0675 87.2006 73.6318 88.2312 69.3029 91.0277C65.3356 93.5906 62.3619 97.9859 62.8096 102.873C63.2523 107.723 67.291 111.285 71.6494 112.854C76.844 114.723 82.5331 114.037 87.8851 113.395C88.4336 113.336 88.8862 112.702 88.0598 112.802Z" fill="#00936C"/>
</svg>
