<svg width="40" height="40" viewBox="0 0 40 40" fill="none" xmlns="http://www.w3.org/2000/svg">
<rect width="40" height="40" rx="10" fill="#129575"/>
<path d="M28.3334 16.0417H23.3334C22.9917 16.0417 22.7084 15.7583 22.7084 15.4167C22.7084 15.075 22.9917 14.7917 23.3334 14.7917H28.3334C28.675 14.7917 28.9584 15.075 28.9584 15.4167C28.9584 15.7583 28.675 16.0417 28.3334 16.0417Z" fill="white"/>
<path d="M15 16.0417H11.6666C11.325 16.0417 11.0416 15.7583 11.0416 15.4167C11.0416 15.075 11.325 14.7917 11.6666 14.7917H15C15.3416 14.7917 15.625 15.075 15.625 15.4167C15.625 15.7583 15.3416 16.0417 15 16.0417Z" fill="white"/>
<path d="M18.3333 18.9583C16.3833 18.9583 14.7916 17.3667 14.7916 15.4167C14.7916 13.4667 16.3833 11.875 18.3333 11.875C20.2833 11.875 21.875 13.4667 21.875 15.4167C21.875 17.3667 20.2833 18.9583 18.3333 18.9583ZM18.3333 13.125C17.0666 13.125 16.0416 14.15 16.0416 15.4167C16.0416 16.6833 17.0666 17.7083 18.3333 17.7083C19.6 17.7083 20.625 16.6833 20.625 15.4167C20.625 14.15 19.6 13.125 18.3333 13.125Z" fill="white"/>
<path d="M28.3333 25.2083H25C24.6583 25.2083 24.375 24.925 24.375 24.5833C24.375 24.2417 24.6583 23.9583 25 23.9583H28.3333C28.675 23.9583 28.9583 24.2417 28.9583 24.5833C28.9583 24.925 28.675 25.2083 28.3333 25.2083Z" fill="white"/>
<path d="M16.6666 25.2083H11.6666C11.325 25.2083 11.0416 24.925 11.0416 24.5833C11.0416 24.2417 11.325 23.9583 11.6666 23.9583H16.6666C17.0083 23.9583 17.2916 24.2417 17.2916 24.5833C17.2916 24.925 17.0083 25.2083 16.6666 25.2083Z" fill="white"/>
<path d="M21.6667 28.125C19.7167 28.125 18.125 26.5333 18.125 24.5833C18.125 22.6333 19.7167 21.0417 21.6667 21.0417C23.6167 21.0417 25.2083 22.6333 25.2083 24.5833C25.2083 26.5333 23.6167 28.125 21.6667 28.125ZM21.6667 22.2917C20.4 22.2917 19.375 23.3167 19.375 24.5833C19.375 25.85 20.4 26.875 21.6667 26.875C22.9333 26.875 23.9583 25.85 23.9583 24.5833C23.9583 23.3167 22.9333 22.2917 21.6667 22.2917Z" fill="white"/>
</svg>
