<svg width="17" height="15" viewBox="0 0 17 15" fill="none" xmlns="http://www.w3.org/2000/svg">
<path d="M5.6667 2.58548C5.63906 2.55806 5.63905 2.55806 5.61141 2.53065C5.4732 2.39355 5.41792 2.33871 5.41792 2.22903C5.41792 2.09194 5.4732 2.06452 5.61141 1.92742C5.6667 1.87258 5.74962 1.79032 5.80491 1.73548C5.88784 1.62581 5.88784 1.48871 5.77727 1.40645C5.6667 1.32419 5.52849 1.32419 5.44556 1.43387C5.39027 1.48871 5.33499 1.54355 5.27971 1.59839C5.11385 1.7629 4.948 1.92742 4.948 2.25645C4.948 2.58548 5.11385 2.75 5.27971 2.91452C5.30735 2.94194 5.30735 2.94194 5.33499 2.96935C5.50084 3.10645 5.61141 3.21613 5.61141 3.4629C5.61141 3.7371 5.4732 3.90161 5.30735 4.06613C5.27971 4.09355 5.27971 4.09355 5.25206 4.12097C5.16914 4.23065 5.16914 4.36774 5.27971 4.45C5.33499 4.47742 5.39027 4.50484 5.44556 4.50484C5.50084 4.50484 5.58377 4.47742 5.63905 4.42258C5.6667 4.39516 5.6667 4.39516 5.69434 4.36774C5.88784 4.17581 6.13662 3.90161 6.13662 3.43548C6.10897 2.96935 5.86019 2.75 5.6667 2.58548Z" fill="#A9A9A9" stroke="#A9A9A9" stroke-width="0.2"/>
<path d="M9.03901 1.51613C9.01137 1.48871 9.01137 1.48871 8.98373 1.46129C8.84552 1.32419 8.79023 1.26935 8.79023 1.15968C8.79023 1.02258 8.84552 0.995161 8.98373 0.858065C9.03901 0.803226 9.12194 0.720968 9.17722 0.666129C9.26015 0.556452 9.26015 0.419355 9.14958 0.337097C9.03901 0.254839 8.9008 0.254839 8.81787 0.364516C8.76259 0.419355 8.7073 0.474194 8.65202 0.529032C8.48617 0.693548 8.32031 0.858065 8.32031 1.1871C8.32031 1.51613 8.48617 1.68065 8.65202 1.84516C8.67966 1.87258 8.67966 1.87258 8.7073 1.9C8.87316 2.0371 8.98373 2.14677 8.98373 2.39355C8.98373 2.66774 8.84552 2.83226 8.67966 2.99677C8.65202 3.02419 8.65202 3.02419 8.62438 3.05161C8.54145 3.16129 8.54145 3.29839 8.65202 3.38064C8.7073 3.40806 8.76259 3.43548 8.81787 3.43548C8.87316 3.43548 8.95608 3.40806 9.01137 3.35323C9.03901 3.32581 9.03901 3.32581 9.06665 3.29839C9.26015 3.10645 9.50893 2.83226 9.50893 2.36613C9.48129 1.9 9.23251 1.68065 9.03901 1.51613Z" fill="#A9A9A9" stroke="#A9A9A9" stroke-width="0.2"/>
<path d="M12.4389 2.58548C12.4113 2.55806 12.4113 2.55806 12.3836 2.53065C12.2454 2.39355 12.1901 2.33871 12.1901 2.22903C12.1901 2.09194 12.2454 2.06452 12.3836 1.92742C12.4389 1.87258 12.5218 1.79032 12.5771 1.73548C12.6601 1.62581 12.6601 1.48871 12.5495 1.40645C12.4389 1.32419 12.3007 1.32419 12.2178 1.43387C12.1625 1.48871 12.1072 1.54355 12.0519 1.59839C11.8861 1.7629 11.7202 1.92742 11.7202 2.25645C11.7202 2.58548 11.8861 2.75 12.0519 2.91452C12.0796 2.94194 12.0796 2.94194 12.1072 2.96935C12.2731 3.10645 12.3836 3.21613 12.3836 3.4629C12.3836 3.7371 12.2454 3.90161 12.0796 4.06613C12.0519 4.09355 12.0519 4.09355 12.0243 4.12097C11.9414 4.23065 11.9414 4.36774 12.0519 4.45C12.1072 4.47742 12.1625 4.50484 12.2178 4.50484C12.2731 4.50484 12.356 4.47742 12.4113 4.42258C12.4389 4.39516 12.4389 4.39516 12.4666 4.36774C12.6601 4.17581 12.9088 3.90161 12.9088 3.43548C12.8535 2.96935 12.6048 2.75 12.4389 2.58548Z" fill="#A9A9A9" stroke="#A9A9A9" stroke-width="0.2"/>
<path d="M16.8065 12.5661H0.995118C0.856907 12.5661 0.746338 12.6758 0.746338 12.8129V13.3887C0.746338 14.0194 1.27154 14.5403 1.90731 14.5403H15.8943C16.5301 14.5403 17.0553 14.0194 17.0553 13.3887V12.8129C17.0553 12.6758 16.9447 12.5661 16.8065 12.5661ZM16.5577 13.3887C16.5577 13.7726 16.2537 14.0742 15.8667 14.0742H1.90731C1.52032 14.0742 1.21626 13.7726 1.21626 13.3887V13.0597H16.5577V13.3887Z" fill="#A9A9A9" stroke="#A9A9A9" stroke-width="0.2"/>
<path d="M13.2958 7.41129C12.3283 6.47903 11.0844 5.90323 9.78525 5.71129L10.2552 5.24516C10.3934 5.10806 10.4487 4.88871 10.3657 4.69677C10.2828 4.50484 10.117 4.39516 9.89581 4.39516H7.90557C7.71207 4.39516 7.51858 4.50484 7.43565 4.69677C7.35273 4.88871 7.40801 5.08065 7.54622 5.24516L8.01614 5.71129C6.68931 5.90323 5.47305 6.47903 4.47793 7.41129C3.28931 8.53548 2.59825 10.071 2.54297 11.6887C2.54297 11.8258 2.65354 11.9355 2.76411 11.9355C2.90232 11.9355 3.01289 11.8258 3.01289 11.7161C3.06817 10.2081 3.70394 8.80968 4.80964 7.76774C5.8324 6.78065 7.15923 6.23226 8.54134 6.15C8.56899 6.15 8.59663 6.15 8.62427 6.15C8.65191 6.15 8.67955 6.15 8.7072 6.15C8.73484 6.15 8.73484 6.15 8.76248 6.15C8.79012 6.15 8.84541 6.15 8.87305 6.15C8.90069 6.15 8.95598 6.15 8.98362 6.15C9.01126 6.15 9.01126 6.15 9.0389 6.15C9.06655 6.15 9.09419 6.15 9.12183 6.15C9.14947 6.15 9.17711 6.15 9.20476 6.15C10.6145 6.23226 11.9137 6.78065 12.9365 7.76774C14.0422 8.80968 14.6779 10.2081 14.7332 11.7161C14.7332 11.8532 14.8438 11.9629 14.982 11.9355C15.1202 11.9355 15.2308 11.8258 15.2031 11.6887C15.1755 10.0435 14.4844 8.53548 13.2958 7.41129ZM9.14947 5.65645H9.12183C9.09419 5.65645 9.06655 5.65645 9.0389 5.65645C8.98362 5.65645 8.95598 5.65645 8.90069 5.65645C8.84541 5.65645 8.81777 5.65645 8.76248 5.65645C8.73484 5.65645 8.7072 5.65645 8.67955 5.65645H8.65191L7.90557 4.91613H9.89581L9.14947 5.65645Z" fill="#A9A9A9" stroke="#A9A9A9" stroke-width="0.2"/>
</svg>
