<svg width="165" height="86" viewBox="0 0 165 86" fill="none" xmlns="http://www.w3.org/2000/svg">
<rect x="1" y="1" width="163" height="84" rx="4" fill="white" stroke="#BEBEBE" stroke-width="2" stroke-linecap="round" stroke-linejoin="bevel" stroke-dasharray="12 12"/>
<path d="M107.564 37.1564C106.561 37.1564 105.57 37.243 104.597 37.4149C104.153 26.6413 94.2969 18 82.2448 18C71.1616 18 61.7837 25.3959 60.1385 35.1185C51.2027 35.3155 44 41.9331 44 50.0388C44 58.2682 51.4233 64.9633 60.5479 64.9633H74.3923C75.4393 64.9633 76.2877 64.1982 76.2877 63.2539C76.2877 62.3096 75.4393 61.5444 74.3923 61.5444H60.5479C53.5136 61.5444 47.7908 56.3831 47.7908 50.0388C47.7908 43.6945 53.5138 38.5331 60.5479 38.5331C60.8934 38.5331 61.2588 38.5484 61.6647 38.5801L63.5854 38.73L63.719 36.9955C64.3915 28.261 72.529 21.4189 82.2448 21.4189C92.4882 21.4189 100.822 28.9352 100.822 38.1737C100.822 38.5983 100.8 39.0523 100.753 39.5613L100.505 42.2891L103.332 41.2937C104.685 40.8171 106.109 40.5755 107.564 40.5755C113.985 40.5755 119.209 45.2872 119.209 51.0786C119.209 56.8697 113.985 61.5814 107.564 61.5814C107.395 61.5814 102.356 61.5722 97.3373 61.5631C92.3552 61.554 87.3936 61.5449 87.2288 61.5449C86.0492 61.5449 85.4325 61.0325 85.3956 60.0221V41.5695L87.4525 43.7729C88.1265 44.4954 89.3224 44.5879 90.123 43.9796C90.9238 43.3717 91.0264 42.2934 90.3522 41.5711L85.7939 36.6874C85.2197 36.0722 84.3946 35.7194 83.5301 35.7194C82.6655 35.7194 81.8404 36.0722 81.2665 36.6874L76.7082 41.5711C76.034 42.2934 76.1366 43.3717 76.9374 43.9796C77.293 44.2497 77.7262 44.3814 78.157 44.3814C78.6971 44.3814 79.2331 44.1745 79.6079 43.7729L81.6046 41.6336V60.0388C81.6046 62.0185 83.1025 64.9635 87.2286 64.9635C87.3934 64.9635 92.3512 64.9727 97.3292 64.9815C102.352 64.9909 107.395 65 107.564 65C116.076 65 123 58.7548 123 51.0783C123 43.4016 116.075 37.1564 107.564 37.1564Z" fill="#BEBEBE"/>
</svg>
