<svg width="147" height="18" viewBox="0 0 147 18" fill="none" xmlns="http://www.w3.org/2000/svg">
<path d="M25.148 13L23.3 9.736H22.508V13H20.828V4.624H23.972C24.62 4.624 25.172 4.74 25.628 4.972C26.084 5.196 26.424 5.504 26.648 5.896C26.88 6.28 26.996 6.712 26.996 7.192C26.996 7.744 26.836 8.244 26.516 8.692C26.196 9.132 25.72 9.436 25.088 9.604L27.092 13H25.148ZM22.508 8.476H23.912C24.368 8.476 24.708 8.368 24.932 8.152C25.156 7.928 25.268 7.62 25.268 7.228C25.268 6.844 25.156 6.548 24.932 6.34C24.708 6.124 24.368 6.016 23.912 6.016H22.508V8.476ZM34.6955 9.532C34.6955 9.772 34.6795 9.988 34.6475 10.18H29.7875C29.8275 10.66 29.9955 11.036 30.2915 11.308C30.5875 11.58 30.9515 11.716 31.3835 11.716C32.0075 11.716 32.4515 11.448 32.7155 10.912H34.5275C34.3355 11.552 33.9675 12.08 33.4235 12.496C32.8795 12.904 32.2115 13.108 31.4195 13.108C30.7795 13.108 30.2035 12.968 29.6915 12.688C29.1875 12.4 28.7915 11.996 28.5035 11.476C28.2235 10.956 28.0835 10.356 28.0835 9.676C28.0835 8.988 28.2235 8.384 28.5035 7.864C28.7835 7.344 29.1755 6.944 29.6795 6.664C30.1835 6.384 30.7635 6.244 31.4195 6.244C32.0515 6.244 32.6155 6.38 33.1115 6.652C33.6155 6.924 34.0035 7.312 34.2755 7.816C34.5555 8.312 34.6955 8.884 34.6955 9.532ZM32.9555 9.052C32.9475 8.62 32.7915 8.276 32.4875 8.02C32.1835 7.756 31.8115 7.624 31.3715 7.624C30.9555 7.624 30.6035 7.752 30.3155 8.008C30.0355 8.256 29.8635 8.604 29.7995 9.052H32.9555ZM44.1778 6.256C44.9938 6.256 45.6498 6.508 46.1458 7.012C46.6498 7.508 46.9018 8.204 46.9018 9.1V13H45.2218V9.328C45.2218 8.808 45.0898 8.412 44.8258 8.14C44.5618 7.86 44.2018 7.72 43.7458 7.72C43.2898 7.72 42.9258 7.86 42.6538 8.14C42.3898 8.412 42.2578 8.808 42.2578 9.328V13H40.5778V9.328C40.5778 8.808 40.4458 8.412 40.1818 8.14C39.9178 7.86 39.5578 7.72 39.1018 7.72C38.6378 7.72 38.2698 7.86 37.9978 8.14C37.7338 8.412 37.6018 8.808 37.6018 9.328V13H35.9218V6.352H37.6018V7.156C37.8178 6.876 38.0938 6.656 38.4298 6.496C38.7738 6.336 39.1498 6.256 39.5578 6.256C40.0778 6.256 40.5418 6.368 40.9498 6.592C41.3578 6.808 41.6738 7.12 41.8978 7.528C42.1138 7.144 42.4258 6.836 42.8338 6.604C43.2498 6.372 43.6978 6.256 44.1778 6.256ZM51.448 13.108C50.808 13.108 50.232 12.968 49.72 12.688C49.208 12.4 48.804 11.996 48.508 11.476C48.22 10.956 48.076 10.356 48.076 9.676C48.076 8.996 48.224 8.396 48.52 7.876C48.824 7.356 49.236 6.956 49.756 6.676C50.276 6.388 50.856 6.244 51.496 6.244C52.136 6.244 52.716 6.388 53.236 6.676C53.756 6.956 54.164 7.356 54.46 7.876C54.764 8.396 54.916 8.996 54.916 9.676C54.916 10.356 54.76 10.956 54.448 11.476C54.144 11.996 53.728 12.4 53.2 12.688C52.68 12.968 52.096 13.108 51.448 13.108ZM51.448 11.644C51.752 11.644 52.036 11.572 52.3 11.428C52.572 11.276 52.788 11.052 52.948 10.756C53.108 10.46 53.188 10.1 53.188 9.676C53.188 9.044 53.02 8.56 52.684 8.224C52.356 7.88 51.952 7.708 51.472 7.708C50.992 7.708 50.588 7.88 50.26 8.224C49.94 8.56 49.78 9.044 49.78 9.676C49.78 10.308 49.936 10.796 50.248 11.14C50.568 11.476 50.968 11.644 51.448 11.644ZM58.9203 11.452L60.6003 6.352H62.3883L59.9283 13H57.8883L55.4403 6.352H57.2403L58.9203 11.452ZM69.5119 9.532C69.5119 9.772 69.4959 9.988 69.4639 10.18H64.6039C64.6439 10.66 64.8119 11.036 65.1079 11.308C65.4039 11.58 65.7679 11.716 66.1999 11.716C66.8239 11.716 67.2679 11.448 67.5319 10.912H69.3439C69.1519 11.552 68.7839 12.08 68.2399 12.496C67.6959 12.904 67.0279 13.108 66.2359 13.108C65.5959 13.108 65.0199 12.968 64.5079 12.688C64.0039 12.4 63.6079 11.996 63.3199 11.476C63.0399 10.956 62.8999 10.356 62.8999 9.676C62.8999 8.988 63.0399 8.384 63.3199 7.864C63.5999 7.344 63.9919 6.944 64.4959 6.664C64.9999 6.384 65.5799 6.244 66.2359 6.244C66.8679 6.244 67.4319 6.38 67.9279 6.652C68.4319 6.924 68.8199 7.312 69.0919 7.816C69.3719 8.312 69.5119 8.884 69.5119 9.532ZM67.7719 9.052C67.7639 8.62 67.6079 8.276 67.3039 8.02C66.9999 7.756 66.6279 7.624 66.1879 7.624C65.7719 7.624 65.4199 7.752 65.1319 8.008C64.8519 8.256 64.6799 8.604 64.6159 9.052H67.7719ZM75.2775 4.624V13H73.5975V4.624H75.2775ZM80.6214 6.256C81.4134 6.256 82.0534 6.508 82.5414 7.012C83.0294 7.508 83.2734 8.204 83.2734 9.1V13H81.5934V9.328C81.5934 8.8 81.4614 8.396 81.1974 8.116C80.9334 7.828 80.5734 7.684 80.1174 7.684C79.6534 7.684 79.2854 7.828 79.0134 8.116C78.7494 8.396 78.6174 8.8 78.6174 9.328V13H76.9374V6.352H78.6174V7.18C78.8414 6.892 79.1254 6.668 79.4694 6.508C79.8214 6.34 80.2054 6.256 80.6214 6.256ZM87.475 6.244C87.971 6.244 88.407 6.344 88.783 6.544C89.159 6.736 89.455 6.988 89.671 7.3V6.352H91.363V13.048C91.363 13.664 91.239 14.212 90.991 14.692C90.743 15.18 90.371 15.564 89.875 15.844C89.379 16.132 88.779 16.276 88.075 16.276C87.131 16.276 86.355 16.056 85.747 15.616C85.147 15.176 84.807 14.576 84.727 13.816H86.395C86.483 14.12 86.671 14.36 86.959 14.536C87.255 14.72 87.611 14.812 88.027 14.812C88.515 14.812 88.911 14.664 89.215 14.368C89.519 14.08 89.671 13.64 89.671 13.048V12.016C89.455 12.328 89.155 12.588 88.771 12.796C88.395 13.004 87.963 13.108 87.475 13.108C86.915 13.108 86.403 12.964 85.939 12.676C85.475 12.388 85.107 11.984 84.835 11.464C84.571 10.936 84.439 10.332 84.439 9.652C84.439 8.98 84.571 8.384 84.835 7.864C85.107 7.344 85.471 6.944 85.927 6.664C86.391 6.384 86.907 6.244 87.475 6.244ZM89.671 9.676C89.671 9.268 89.591 8.92 89.431 8.632C89.271 8.336 89.055 8.112 88.783 7.96C88.511 7.8 88.219 7.72 87.907 7.72C87.595 7.72 87.307 7.796 87.043 7.948C86.779 8.1 86.563 8.324 86.395 8.62C86.235 8.908 86.155 9.252 86.155 9.652C86.155 10.052 86.235 10.404 86.395 10.708C86.563 11.004 86.779 11.232 87.043 11.392C87.315 11.552 87.603 11.632 87.907 11.632C88.219 11.632 88.511 11.556 88.783 11.404C89.055 11.244 89.271 11.02 89.431 10.732C89.591 10.436 89.671 10.084 89.671 9.676ZM94.6838 7.384C94.8998 7.032 95.1798 6.756 95.5238 6.556C95.8758 6.356 96.2758 6.256 96.7238 6.256V8.02H96.2798C95.7518 8.02 95.3518 8.144 95.0798 8.392C94.8158 8.64 94.6838 9.072 94.6838 9.688V13H93.0038V6.352H94.6838V7.384ZM104.035 9.532C104.035 9.772 104.019 9.988 103.987 10.18H99.1273C99.1673 10.66 99.3353 11.036 99.6313 11.308C99.9273 11.58 100.291 11.716 100.723 11.716C101.347 11.716 101.791 11.448 102.055 10.912H103.867C103.675 11.552 103.307 12.08 102.763 12.496C102.219 12.904 101.551 13.108 100.759 13.108C100.119 13.108 99.5433 12.968 99.0313 12.688C98.5273 12.4 98.1313 11.996 97.8433 11.476C97.5633 10.956 97.4233 10.356 97.4233 9.676C97.4233 8.988 97.5633 8.384 97.8433 7.864C98.1233 7.344 98.5153 6.944 99.0193 6.664C99.5233 6.384 100.103 6.244 100.759 6.244C101.391 6.244 101.955 6.38 102.451 6.652C102.955 6.924 103.343 7.312 103.615 7.816C103.895 8.312 104.035 8.884 104.035 9.532ZM102.295 9.052C102.287 8.62 102.131 8.276 101.827 8.02C101.523 7.756 101.151 7.624 100.711 7.624C100.295 7.624 99.9433 7.752 99.6553 8.008C99.3753 8.256 99.2033 8.604 99.1393 9.052H102.295ZM104.83 9.652C104.83 8.98 104.962 8.384 105.226 7.864C105.498 7.344 105.866 6.944 106.33 6.664C106.794 6.384 107.31 6.244 107.878 6.244C108.31 6.244 108.722 6.34 109.114 6.532C109.506 6.716 109.818 6.964 110.05 7.276V4.12H111.754V13H110.05V12.016C109.842 12.344 109.55 12.608 109.174 12.808C108.798 13.008 108.362 13.108 107.866 13.108C107.306 13.108 106.794 12.964 106.33 12.676C105.866 12.388 105.498 11.984 105.226 11.464C104.962 10.936 104.83 10.332 104.83 9.652ZM110.062 9.676C110.062 9.268 109.982 8.92 109.822 8.632C109.662 8.336 109.446 8.112 109.174 7.96C108.902 7.8 108.61 7.72 108.298 7.72C107.986 7.72 107.698 7.796 107.434 7.948C107.17 8.1 106.954 8.324 106.786 8.62C106.626 8.908 106.546 9.252 106.546 9.652C106.546 10.052 106.626 10.404 106.786 10.708C106.954 11.004 107.17 11.232 107.434 11.392C107.706 11.552 107.994 11.632 108.298 11.632C108.61 11.632 108.902 11.556 109.174 11.404C109.446 11.244 109.662 11.02 109.822 10.732C109.982 10.436 110.062 10.084 110.062 9.676ZM114.246 5.56C113.95 5.56 113.702 5.468 113.502 5.284C113.31 5.092 113.214 4.856 113.214 4.576C113.214 4.296 113.31 4.064 113.502 3.88C113.702 3.688 113.95 3.592 114.246 3.592C114.542 3.592 114.786 3.688 114.978 3.88C115.178 4.064 115.278 4.296 115.278 4.576C115.278 4.856 115.178 5.092 114.978 5.284C114.786 5.468 114.542 5.56 114.246 5.56ZM115.074 6.352V13H113.394V6.352H115.074ZM122.914 9.532C122.914 9.772 122.898 9.988 122.866 10.18H118.006C118.046 10.66 118.214 11.036 118.51 11.308C118.806 11.58 119.17 11.716 119.602 11.716C120.226 11.716 120.67 11.448 120.934 10.912H122.746C122.554 11.552 122.186 12.08 121.642 12.496C121.098 12.904 120.43 13.108 119.638 13.108C118.998 13.108 118.422 12.968 117.91 12.688C117.406 12.4 117.01 11.996 116.722 11.476C116.442 10.956 116.302 10.356 116.302 9.676C116.302 8.988 116.442 8.384 116.722 7.864C117.002 7.344 117.394 6.944 117.898 6.664C118.402 6.384 118.982 6.244 119.638 6.244C120.27 6.244 120.834 6.38 121.33 6.652C121.834 6.924 122.222 7.312 122.494 7.816C122.774 8.312 122.914 8.884 122.914 9.532ZM121.174 9.052C121.166 8.62 121.01 8.276 120.706 8.02C120.402 7.756 120.03 7.624 119.59 7.624C119.174 7.624 118.822 7.752 118.534 8.008C118.254 8.256 118.082 8.604 118.018 9.052H121.174ZM127.825 6.256C128.617 6.256 129.257 6.508 129.745 7.012C130.233 7.508 130.477 8.204 130.477 9.1V13H128.797V9.328C128.797 8.8 128.665 8.396 128.401 8.116C128.137 7.828 127.777 7.684 127.321 7.684C126.857 7.684 126.489 7.828 126.217 8.116C125.953 8.396 125.821 8.8 125.821 9.328V13H124.141V6.352H125.821V7.18C126.045 6.892 126.329 6.668 126.673 6.508C127.025 6.34 127.409 6.256 127.825 6.256ZM134.03 7.732V10.948C134.03 11.172 134.082 11.336 134.186 11.44C134.298 11.536 134.482 11.584 134.738 11.584H135.518V13H134.462C133.046 13 132.338 12.312 132.338 10.936V7.732H131.546V6.352H132.338V4.708H134.03V6.352H135.518V7.732H134.03Z" fill="#00936C"/>
<circle cx="7.5" cy="8.5" r="7" stroke="#00936C"/>
<rect x="2.57141" y="7.85717" width="9.42857" height="1.71429" rx="0.857143" fill="#00936C"/>
</svg>
