<svg width="79" height="47" viewBox="0 0 79 47" fill="none" xmlns="http://www.w3.org/2000/svg">
<path d="M63.5635 19.1564C62.5612 19.1564 61.5698 19.243 60.5971 19.4149C60.1533 8.64133 50.2969 0 38.2448 0C27.1616 0 17.7837 7.39594 16.1385 17.1185C7.2027 17.3155 0 23.9331 0 32.0388C0 40.2682 7.42333 46.9633 16.5479 46.9633H30.3923C31.4393 46.9633 32.2877 46.1982 32.2877 45.2539C32.2877 44.3096 31.4393 43.5444 30.3923 43.5444H16.5479C9.51355 43.5444 3.79076 38.3831 3.79076 32.0388C3.79076 25.6945 9.5138 20.5331 16.5479 20.5331C16.8934 20.5331 17.2588 20.5484 17.6647 20.5801L19.5854 20.73L19.719 18.9955C20.3915 10.261 28.529 3.41888 38.2448 3.41888C48.4882 3.41888 56.822 10.9352 56.822 20.1737C56.822 20.5983 56.7995 21.0523 56.7533 21.5613L56.5049 24.2891L59.3318 23.2937C60.6853 22.8171 62.1091 22.5755 63.564 22.5755C69.9853 22.5755 75.2095 27.2872 75.2095 33.0786C75.2095 38.8697 69.9853 43.5814 63.564 43.5814C63.3952 43.5814 58.356 43.5722 53.3373 43.5631C48.3552 43.554 43.3936 43.5449 43.2288 43.5449C42.0492 43.5449 41.4325 43.0325 41.3956 42.0221V23.5695L43.4525 25.7729C44.1265 26.4954 45.3224 26.5879 46.123 25.9796C46.9238 25.3717 47.0264 24.2934 46.3522 23.5711L41.7939 18.6874C41.2197 18.0722 40.3946 17.7194 39.5301 17.7194C38.6655 17.7194 37.8404 18.0722 37.2665 18.6874L32.7082 23.5711C32.034 24.2934 32.1366 25.3717 32.9374 25.9796C33.293 26.2497 33.7262 26.3814 34.157 26.3814C34.6971 26.3814 35.2331 26.1745 35.6079 25.7729L37.6046 23.6336V42.0388C37.6046 44.0185 39.1025 46.9635 43.2286 46.9635C43.3934 46.9635 48.3512 46.9727 53.3292 46.9815C58.3517 46.9909 63.3947 47 63.5638 47C72.0755 47 79 40.7548 79 33.0783C79 25.4016 72.0753 19.1564 63.5635 19.1564Z" fill="#BEBEBE"/>
</svg>
